<?xml version="1.0" standalone="no"?>
<!DOCTYPE svg PUBLIC "-//W3C//DTD SVG 1.1//EN" "http://www.w3.org/Graphics/SVG/1.1/DTD/svg11.dtd" >
<!--
2013-9-30: Created.
-->
<svg>
<metadata>
Created by iconfont
</metadata>
<defs>

<font id="iconfont" horiz-adv-x="1024" >
  <font-face
    font-family="iconfont"
    font-weight="500"
    font-stretch="normal"
    units-per-em="1024"
    ascent="896"
    descent="-128"
  />
    <missing-glyph />
    
    <glyph glyph-name="x" unicode="x" horiz-adv-x="1001"
d="M281 543q-27 -1 -53 -1h-83q-18 0 -36.5 -6t-32.5 -18.5t-23 -32t-9 -45.5v-76h912v41q0 16 -0.5 30t-0.5 18q0 13 -5 29t-17 29.5t-31.5 22.5t-49.5 9h-133v-97h-438v97zM955 310v-52q0 -23 0.5 -52t0.5 -58t-10.5 -47.5t-26 -30t-33 -16t-31.5 -4.5q-14 -1 -29.5 -0.5
t-29.5 0.5h-32l-45 128h-439l-44 -128h-29h-34q-20 0 -45 1q-25 0 -41 9.5t-25.5 23t-13.5 29.5t-4 30v167h911zM163 247q-12 0 -21 -8.5t-9 -21.5t9 -21.5t21 -8.5q13 0 22 8.5t9 21.5t-9 21.5t-22 8.5zM316 123q-8 -26 -14 -48q-5 -19 -10.5 -37t-7.5 -25t-3 -15t1 -14.5
t9.5 -10.5t21.5 -4h37h67h81h80h64h36q23 0 34 12t2 38q-5 13 -9.5 30.5t-9.5 34.5q-5 19 -11 39h-368zM336 498v228q0 11 2.5 23t10 21.5t20.5 15.5t34 6h188q31 0 51.5 -14.5t20.5 -52.5v-227h-327z" />
    

    
    <glyph glyph-name="weibo" unicode="&#59083;" d="M386.119523 163.9994c7.482415 12.238742 9.521864 25.157983 6.121418 38.759769-3.40147 13.598716-11.901051 23.12058-25.50079 28.559453-12.919241 5.439896-26.859741 5.439896-41.819454 0-14.959713-5.438872-26.180266-13.9405-33.660634-25.50079-8.840342-12.920264-11.56029-25.839505-8.160867-38.758746 3.400446-12.921287 11.56029-22.781866 24.480554-29.581736 12.919241-6.79987 27.200502-7.139607 42.839691-1.019213C366.060675 142.577508 377.961726 151.757588 386.119523 163.9994L386.119523 163.9994zM439.161576 232.338858c3.399423 4.758374 4.078899 9.859555 2.039449 15.300474-2.039449 5.438872-5.438872 8.838296-10.200316 10.19827-4.759397 2.039449-10.199293 2.039449-16.319687 0-6.118348-2.039449-10.199293-5.438872-12.239765-10.19827-6.118348-12.240789-3.399423-21.082154 8.16189-26.52205 5.437849-1.359974 10.879792-1.01819 16.319687 1.02126C432.361707 224.177991 436.441629 227.578438 439.161576 232.338858L439.161576 232.338858zM538.101983 171.136961c-16.999163-38.757722-46.921659-66.977437-89.760326-84.658122-42.839691-17.680684-85.340667-20.060895-127.501906-7.141654-40.800241 12.922311-68.681242 37.063127-83.640955 72.421426-14.959713 35.359322-13.9405 70.719668 3.060709 106.080014 18.359137 35.362392 47.260373 61.882396 86.699618 79.562057 39.441291 17.679661 79.221296 21.080108 119.342062 10.200316 42.158169-10.880815 72.41938-33.32192 90.779539-67.320245C555.441906 246.278335 555.782667 209.897753 538.101983 171.136961zM715.58421 262.93776c-3.399423 36.041868-20.060895 68.000743-49.983391 95.880721-29.918403 27.879977-69.698408 48.621371-119.338992 62.22111-49.63956 13.600763-101.660354 17.679661-156.061358 12.240789-84.319407-8.842389-154.360623-35.701107-210.120578-80.58127-55.760978-44.881187-80.921008-95.200222-75.480088-150.960177 3.399423-36.040844 20.399609-68.00279 51.000558-95.881744 30.598902-27.877931 70.040193-48.619324 118.320802-62.220087 48.279586-13.599739 100.30038-17.677615 156.060335-12.239765 84.999906 8.838296 155.040099 35.69906 210.120578 80.580247C695.184601 156.857746 720.342584 207.178829 715.58421 262.93776L715.58421 262.93776zM891.024941 259.877051c0-25.838482-6.800893-52.018747-20.402679-78.538751-13.600763-26.521027-34.339086-52.700269-62.220087-78.540797-27.878954-25.840528-59.8409-47.941895-95.880721-66.302055-36.039821-18.358113-78.880535-34.341133-128.521119-47.940872-49.641607-13.598716-100.979856-19.379373-154.020886-17.3389s-105.400538 8.500605-157.081595 19.379373c-51.680033 10.881838-97.240695 28.220738-136.681986 52.021817-39.440267 23.799032-72.079642 52.700269-97.92017 86.701664C12.455171 163.317878 0.215406 201.056388 1.576403 242.538151c0 43.522236 13.260002 90.101087 39.781028 139.740648 26.520003 49.64263 63.919798 98.601692 112.200408 146.882302 63.920822 63.920822 128.860856 108.461247 194.822151 133.6223 65.960271 25.159006 112.542192 24.139793 139.742694-3.059686 24.478508-24.480554 28.217668-64.261583 11.220552-119.342062-1.359974-5.440919-1.359974-9.18008 0-11.220552 1.359974-2.039449 3.058662-3.399423 5.099135-4.079922 2.037403-0.678452 4.758374-0.678452 8.15882 0 3.399423 0.680499 6.119371 1.360997 8.160867 2.040473l3.059686 1.020236c53.04103 22.440082 99.961666 33.660634 140.761907 33.660634s69.699432-11.56029 86.701664-34.68087c17.000186-23.800056 17.000186-57.46069 0-100.980879-0.681522-5.438872-1.699712-9.18008-3.060709-11.219529-1.357927-2.040473-0.338714-4.420683 3.060709-7.141654 3.3984-2.719948 5.779633-4.418636 7.140631-5.098111 1.360997-0.680499 4.419659-1.701758 9.181103-3.061732 21.76163-6.800893 41.479717-15.639189 59.160401-26.520003 17.681708-10.880815 32.639375-26.520003 44.881187-46.920636C883.883287 305.777451 890.345466 283.67813 891.024941 259.877051L891.024941 259.877051zM849.205487 615.861742c15.639189-18.36016 25.838482-39.10053 30.598902-62.22111 4.758374-23.118534 3.741207-45.559639-3.059686-67.321268-3.40147-8.15882-9.18008-14.619976-17.339924-19.379373-8.160867-4.76042-16.658402-5.439896-25.499767-2.040473-8.162914 3.400446-14.623046 9.18008-19.380396 17.340947-4.758374 8.157797-5.438872 16.660448-2.040473 25.498744 7.482415 23.801079 3.059686 44.541449-13.258978 62.222133-16.319687 17.678638-36.72032 24.479531-61.200874 20.400632-8.841366-2.039449-17.337877-0.679475-25.499767 4.079922-8.16189 4.76042-12.921287 11.901051-14.281261 21.420869-2.040473 9.519818-0.338714 18.019399 5.099135 25.50079 5.439896 7.480368 12.241812 12.239765 20.401656 14.280238 23.121604 4.759397 45.899376 3.739161 68.338435-3.060709C814.523593 645.781168 833.562205 633.542426 849.205487 615.861742zM952.225815 708.681754c32.639375-36.72032 54.057173-79.221296 64.260559-127.500882 10.201339-48.28061 7.481392-93.840248-8.162914-136.681986-3.397377-10.199293-9.859555-18.018376-19.377326-23.459295-9.521864-5.438872-19.380396-6.119371-29.581736-2.039449-10.199293 4.078899-17.679661 10.539031-22.441105 19.379373-4.758374 8.841366-5.779633 18.699897-3.059686 29.580712 10.880815 31.279401 12.919241 63.919798 6.119371 97.919147-6.800893 34.001395-22.101367 63.921845-45.899376 89.76135-23.802102 26.520003-52.020794 44.539402-84.661192 54.060243-32.639375 9.519818-65.281819 11.220552-97.922217 5.100158-10.878768-2.040473-20.738323 0-29.577642 6.120394s-14.618952 14.280238-17.3389 24.480554c-2.721994 10.199293-1.019213 20.060895 5.100158 29.579689 6.118348 9.520841 14.616906 14.959713 25.50079 16.321734 46.239114 9.518794 92.478228 7.479345 138.721435-6.120394C880.144126 771.582339 919.585417 746.082572 952.225815 708.681754L952.225815 708.681754z"  horiz-adv-x="1024" />

    
    <glyph glyph-name="search" unicode="&#59082;" d="M448.848193 60.86343899999997c-212.815967 0-385.958352 173.138292-385.958352 385.952212 0 212.805734 173.142385 385.948119 385.958352 385.948119 212.818013 0 385.964492-173.141362 385.964492-385.948119C834.813708 234.00173099999995 661.66723 60.86343899999997 448.848193 60.86343899999997M448.848193 737.7682090000001c-160.433946 0-290.956651-130.522706-290.956651-290.952558 0-160.430876 130.522706-290.951535 290.956651-290.951535 160.435992 0 290.963815 130.520659 290.963815 290.951535C739.813031 607.245504 609.284185 737.7682090000001 448.848193 737.7682090000001M899.635039-62.408119000000056c-14.966876 0-29.922497 5.711072-41.3385 17.120936L656.648936 156.34302300000002c-22.825868 22.823821-22.825868 59.841923 0 82.678024 22.842241 22.820752 59.851133 22.820752 82.684164 0l201.64658-201.630207c22.826891-22.826891 22.826891-59.842946 0-82.678024C929.558559-56.697047 914.600893-62.408119000000056 899.635039-62.408119000000056"  horiz-adv-x="1024" />

    
    <glyph glyph-name="wechat" unicode="&#58944;" d="M464.116992 453.12c71.68 74.24 161.28 102.4 263.68 94.72-10.24 48.64-33.28 92.16-66.56 130.56C528.116992 819.2 292.596992 844.8 133.876992 732.16 44.276992 670.72-6.923008 586.24 0.756992 473.6c5.12-89.6 53.76-156.16 122.88-207.36 17.92-12.8 20.48-25.6 12.8-46.08-10.24-25.6-17.92-48.64-28.16-79.36 38.4 17.92 69.12 35.84 102.4 51.2 12.8 5.12 30.72 7.68 46.08 5.12 43.52-5.12 89.6-10.24 135.68-15.36C371.956992 286.72 392.436992 378.88 464.116992 453.12zM494.836992 655.36c30.72 2.56 58.88-25.6 58.88-56.32 0-30.72-25.6-56.32-56.32-56.32-30.72 0-56.32 25.6-58.88 53.76C438.516992 627.2 466.676992 655.36 494.836992 655.36zM297.716992 593.92c-2.56-30.72-28.16-53.76-58.88-53.76-30.72 2.56-56.32 28.16-53.76 58.88 2.56 30.72 28.16 53.76 58.88 53.76C274.676992 652.8 300.276992 624.64 297.716992 593.92zM950.516992 432.64c-112.64 110.08-294.4 125.44-427.52 35.84-148.48-99.84-156.16-294.4-12.8-404.48 81.92-61.44 176.64-79.36 279.04-56.32 25.6 5.12 46.08 5.12 69.12-10.24 20.48-12.8 40.96-23.04 66.56-35.84-2.56 12.8-5.12 20.48-7.68 25.6-20.48 43.52-12.8 71.68 25.6 104.96C1050.356992 194.56 1050.356992 335.36 950.516992 432.64zM622.836992 304.64c-20.48 0-40.96 17.92-40.96 38.4-2.56 20.48 17.92 43.52 40.96 43.52 20.48 0 40.96-17.92 40.96-38.4C661.236992 325.12 643.316992 304.64 622.836992 304.64zM819.956992 302.08c-23.04 0-38.4 17.92-38.4 40.96 0 23.04 17.92 38.4 38.4 38.4 23.04 0 40.96-17.92 40.96-38.4C860.916992 320 842.996992 302.08 819.956992 302.08z"  horiz-adv-x="1025" />

    
    <glyph glyph-name="mail" unicode="&#58901;" d="M170.666667 768l682.666667 0q52.992 0 90.496-37.504t37.504-90.496l0-512q0-52.992-37.504-90.496t-90.496-37.504l-682.666667 0q-52.992 0-90.496 37.504t-37.504 90.496l0 512q0 52.992 37.504 90.496t90.496 37.504zM896 128l0 466.005333-357.333333-285.994667q-11.349333-9.344-26.666667-9.344t-26.666667 9.344l-357.333333 285.994667 0-466.005333q0-17.664 12.501333-30.165333t30.165333-12.501333l682.666667 0q17.664 0 30.165333 12.501333t12.501333 30.165333zM853.333333 682.666667l-682.666667 0q-6.314667 0-13.994667-2.346667l355.328-284.330667 355.328 284.330667q-7.68 2.346667-13.994667 2.346667z"  horiz-adv-x="1024" />

    
    <glyph glyph-name="qq" unicode="&#59084;" d="M116.435 302.286c-33.54-78.964-38.985-154.297-12.059-168.37 18.572-9.696 47.686 12.382 74.936 52.909 10.791-44.157 37.493-84.137 75.633-116.21-40.004-14.768-66.135-38.886-66.135-66.232 0-44.954 70.709-81.302 157.978-81.302 78.716 0 143.907 29.538 155.94 68.371 3.232 0.049 15.663 0.049 18.796 0 12.083-38.784 77.324-68.371 155.989-68.371 87.267 0 157.978 36.398 157.978 81.302 0 27.297-26.105 51.464-66.135 66.232 38.089 32.123 64.889 72.053 75.631 116.21 27.251-40.527 56.29-62.605 74.887-52.909 26.95 14.073 21.631 89.456-12.032 168.37-26.355 62.058-62.11 107.754-89.457 117.848 0.398 3.929 0.596 7.958 0.596 11.935 0 23.968-6.661 46.146-18.049 64.196 0.199 1.393 0.199 2.834 0.199 4.227 0 11.038-2.636 21.381-7.114 30.332-6.909 161.309-111.93 289.402-281.866 289.402-170.036 0-275.106-128.093-281.943-289.402-4.525-9.001-7.135-19.343-7.135-30.332 0-1.393 0.099-2.835 0.15-4.227-11.288-18.05-17.951-40.178-17.951-64.196 0-3.978 0.15-7.955 0.498-11.935-27.151-10.094-63.028-55.841-89.333-117.848z"  horiz-adv-x="1024" />

    
    <glyph glyph-name="align-center" unicode="&#58881;" d="M912.695652 695.652174H111.304348c-24.486957 0-44.521739 20.034783-44.521739 44.521739s20.034783 44.521739 44.521739 44.521739h801.391304c24.486957 0 44.521739-20.034783 44.521739-44.521739s-20.034783-44.521739-44.521739-44.521739zM786.921739 501.982609c0 24.486957-20.034783 44.521739-44.521739 44.521739H281.6c-24.486957 0-44.521739-20.034783-44.521739-44.521739s20.034783-44.521739 44.521739-44.521739h460.8c24.486957 0 44.521739 20.034783 44.521739 44.521739z m67.895652-237.078261c0 24.486957-20.034783 44.521739-44.521739 44.521739H213.704348c-24.486957 0-44.521739-20.034783-44.521739-44.521739s20.034783-44.521739 44.521739-44.521739h596.591304c24.486957 0 44.521739 20.034783 44.521739 44.521739zM936.069565 27.826087c0 24.486957-20.034783 44.521739-44.521739 44.521739H132.452174c-24.486957 0-44.521739-20.034783-44.521739-44.521739s20.034783-44.521739 44.521739-44.521739H890.434783c25.6 0 45.634783 20.034783 45.634782 44.521739z"  horiz-adv-x="1024" />

    
    <glyph glyph-name="align-right" unicode="&#58882;" d="M912.695652 695.652174H111.304348c-24.486957 0-44.521739 20.034783-44.521739 44.521739s20.034783 44.521739 44.521739 44.521739h801.391304c24.486957 0 44.521739-20.034783 44.521739-44.521739s-20.034783-44.521739-44.521739-44.521739z m44.521739-193.669565c0 24.486957-20.034783 44.521739-44.521739 44.521739H451.895652c-24.486957 0-44.521739-20.034783-44.521739-44.521739s20.034783-44.521739 44.521739-44.521739H912.695652c24.486957 0 44.521739 20.034783 44.521739 44.521739z m0-237.078261c0 24.486957-20.034783 44.521739-44.521739 44.521739H316.104348c-24.486957 0-44.521739-20.034783-44.521739-44.521739s20.034783-44.521739 44.521739-44.521739H912.695652c24.486957 0 44.521739 20.034783 44.521739 44.521739zM953.878261 27.826087c0 24.486957-20.034783 44.521739-44.521739 44.521739H151.373913c-24.486957 0-44.521739-20.034783-44.521739-44.521739s20.034783-44.521739 44.521739-44.521739h757.982609c24.486957 0 44.521739 20.034783 44.521739 44.521739z"  horiz-adv-x="1024" />

    
    <glyph glyph-name="align-left" unicode="&#58883;" d="M912.695652 695.652174H111.304348c-24.486957 0-44.521739 20.034783-44.521739 44.521739s20.034783 44.521739 44.521739 44.521739h801.391304c24.486957 0 44.521739-20.034783 44.521739-44.521739s-20.034783-44.521739-44.521739-44.521739zM616.626087 501.982609c0 24.486957-20.034783 44.521739-44.521739 44.521739H111.304348c-24.486957 0-44.521739-20.034783-44.521739-44.521739s20.034783-44.521739 44.521739-44.521739h460.8c24.486957 0 44.521739 20.034783 44.521739 44.521739z m135.791304-237.078261c0 24.486957-20.034783 44.521739-44.521739 44.521739H111.304348c-24.486957 0-44.521739-20.034783-44.521739-44.521739s20.034783-44.521739 44.521739-44.521739h596.591304c24.486957 0 44.521739 20.034783 44.521739 44.521739zM917.147826 27.826087c0 24.486957-20.034783 44.521739-44.521739 44.521739H114.643478c-24.486957 0-44.521739-20.034783-44.521739-44.521739s20.034783-44.521739 44.521739-44.521739h757.982609c24.486957 0 44.521739 20.034783 44.521739 44.521739z"  horiz-adv-x="1024" />

    
    <glyph glyph-name="arrow-down" unicode="&#58884;" d="M887.095652 343.930435c-6.678261 15.582609-23.373913 28.93913-41.182609 28.93913H701.217391V784.695652c0 24.486957-25.6 44.521739-50.086956 44.521739h-278.26087C348.382609 829.217391 322.782609 809.182609 322.782609 784.695652v-411.826087H178.086957c-17.808696 0-34.504348-13.356522-41.182609-28.93913-6.678261-16.695652-3.33913-36.730435 8.904348-48.973913l333.913043-341.704348c8.904348-8.904348 20.034783-13.356522 32.278261-13.356522 12.243478 0 23.373913 4.452174 32.278261 13.356522l333.913043 341.704348c12.243478 12.243478 15.582609 32.278261 8.904348 48.973913zM512 51.2L283.826087 283.826087h89.043478c24.486957 0 38.956522 15.582609 38.956522 40.069565V740.173913h200.347826v-416.278261c0-24.486957 14.469565-40.069565 38.956522-40.069565h89.043478L512 51.2z"  horiz-adv-x="1024" />

    
    <glyph glyph-name="arrow-right" unicode="&#58885;" d="M943.86087 416.278261l-340.591305 333.913043c-13.356522 12.243478-34.504348 16.695652-50.086956 8.904348-16.695652-6.678261-30.052174-23.373913-30.052174-41.182609v-144.695652H111.304348c-24.486957 0-44.521739-25.6-44.521739-50.086956v-278.26087c0-24.486957 20.034783-50.086957 44.521739-50.086956h411.826087v-144.695652c0-17.808696 13.356522-34.504348 28.93913-41.182609 5.565217-2.226087 12.243478-3.33913 17.808696-3.339131 11.130435 0 23.373913 4.452174 31.165217 12.243479l340.591305 333.913043c8.904348 8.904348 13.356522 20.034783 13.356521 32.278261s-2.226087 23.373913-11.130434 32.278261zM612.173913 155.826087v89.043478c0 24.486957-15.582609 38.956522-40.069565 38.956522H155.826087V484.173913h416.278261c24.486957 0 40.069565 14.469565 40.069565 38.956522v89.043478L844.8 384 612.173913 155.826087z"  horiz-adv-x="1024" />

    
    <glyph glyph-name="arrow-left" unicode="&#58886;" d="M912.695652 573.217391H500.869565V717.913043c0 17.808696-13.356522 34.504348-28.93913 41.182609-16.695652 6.678261-36.730435 3.33913-48.973913-8.904348l-341.704348-333.913043C72.347826 407.373913 66.782609 396.243478 66.782609 384s4.452174-23.373913 13.356521-32.278261l340.591305-333.913043c8.904348-7.791304 20.034783-12.243478 31.165217-12.243479 5.565217 0 13.356522 1.113043 18.921739 3.339131 16.695652 6.678261 28.93913 23.373913 28.939131 41.182609V194.782609h411.826087c24.486957 0 44.521739 25.6 44.521739 50.086956v278.26087C957.217391 547.617391 937.182609 573.217391 912.695652 573.217391z m-44.521739-289.391304H451.895652c-24.486957 0-40.069565-14.469565-40.069565-38.956522v-89.043478L179.2 384 411.826087 612.173913v-89.043478c0-24.486957 15.582609-38.956522 40.069565-38.956522H868.173913v-200.347826z"  horiz-adv-x="1024" />

    
    <glyph glyph-name="arrow-thin-down" unicode="&#58888;" d="M821.426087 251.547826l-278.26087-277.147826C534.26087-34.504348 523.130435-38.956522 512-38.956522s-22.26087 4.452174-31.165217 13.356522l-278.26087 277.147826c-17.808696 17.808696-17.808696 45.634783 0 63.443478 17.808696 17.808696 45.634783 17.808696 63.443478 0L467.478261 112.417391V762.434783c0 24.486957 20.034783 44.521739 44.521739 44.521739s44.521739-20.034783 44.521739-44.521739v-650.017392l202.573913 201.46087c17.808696 17.808696 45.634783 17.808696 63.443478 0 16.695652-16.695652 16.695652-44.521739-1.113043-62.330435z"  horiz-adv-x="1024" />

    
    <glyph glyph-name="arrow-thin-left" unicode="&#58889;" d="M934.956522 384c0-24.486957-20.034783-44.521739-44.521739-44.521739H240.417391l201.46087-202.573913c17.808696-17.808696 17.808696-45.634783 0-63.443478-7.791304-7.791304-18.921739-12.243478-31.165218-12.243479-11.130435 0-23.373913 4.452174-31.165217 13.356522l-277.147826 278.26087c-17.808696 17.808696-17.808696 45.634783 0 62.330434l277.147826 278.26087c17.808696 17.808696 45.634783 17.808696 63.443478 0 17.808696-17.808696 17.808696-45.634783 0-63.443478L240.417391 428.521739H890.434783c24.486957 0 44.521739-20.034783 44.521739-44.521739z"  horiz-adv-x="1024" />

    
    <glyph glyph-name="arrow-thin-up" unicode="&#58890;" d="M821.426087 453.008696C812.521739 444.104348 801.391304 439.652174 790.26087 439.652174c-11.130435 0-22.26087 4.452174-31.165218 13.356522L556.521739 655.582609V5.565217c0-24.486957-20.034783-44.521739-44.521739-44.521739s-44.521739 20.034783-44.521739 44.521739V655.582609L264.904348 453.008696c-17.808696-17.808696-45.634783-17.808696-63.443478 0-17.808696 17.808696-17.808696 45.634783 0 63.443478l278.260869 277.147826c17.808696 17.808696 45.634783 17.808696 62.330435 0l278.260869-277.147826c18.921739-17.808696 18.921739-45.634783 1.113044-63.443478z"  horiz-adv-x="1024" />

    
    <glyph glyph-name="alarm" unicode="&#58891;" d="M917.147826 559.86087c12.243478 11.130435 61.217391 56.765217 62.330435 124.660869 1.113043 48.973913-22.26087 93.495652-69.008696 133.565218l-1.113043 1.113043c-55.652174 43.408696-104.626087 45.634783-135.791305 40.069565-54.53913-10.017391-91.269565-48.973913-106.852174-70.121739C617.73913 808.069565 565.426087 818.086957 512 818.086957c-53.426087 0-105.73913-10.017391-153.6-26.713044-16.695652 21.147826-52.313043 60.104348-106.852174 70.121739-31.165217 5.565217-80.13913 3.33913-135.791304-40.069565l-1.113044-1.113044C66.782609 778.017391 43.408696 733.495652 44.521739 684.521739c1.113043-67.895652 48.973913-113.530435 62.330435-124.660869-27.826087-57.878261-42.295652-122.434783-42.295652-191.443479 0-112.417391 42.295652-215.930435 111.304348-294.956521l-2.226087-2.226087-64.556522-96.834783c-13.356522-20.034783-7.791304-47.86087 12.243478-61.217391 7.791304-5.565217 16.695652-7.791304 24.486957-7.791305 14.469565 0 28.93913 6.678261 36.730434 20.034783l57.878261 86.817391c75.686957-57.878261 169.182609-92.382609 271.582609-92.382608s197.008696 34.504348 272.695652 93.495652l58.991305-87.930435c8.904348-13.356522 22.26087-20.034783 36.730434-20.034783 8.904348 0 16.695652 2.226087 24.486957 7.791305 20.034783 13.356522 25.6 41.182609 12.243478 61.217391l-64.556522 96.834783-3.33913 3.33913c67.895652 79.026087 109.078261 181.426087 109.078261 293.843478 1.113043 69.008696-13.356522 133.565217-41.182609 191.443479zM789.147826 772.452174c18.921739 3.33913 40.069565-4.452174 63.443478-22.26087 25.6-22.26087 37.843478-43.408696 37.843479-64.556521 0-18.921739-11.130435-36.730435-21.147826-47.86087-33.391304 44.521739-74.573913 81.252174-121.32174 111.304348 11.130435 11.130435 25.6 21.147826 41.182609 23.373913zM133.565217 685.634783c0 21.147826 12.243478 42.295652 37.843479 64.556521 23.373913 17.808696 44.521739 25.6 63.443478 22.26087 15.582609-3.33913 30.052174-13.356522 41.182609-23.373913-46.747826-28.93913-87.930435-66.782609-121.32174-111.304348-8.904348 12.243478-21.147826 28.93913-21.147826 47.86087z m378.434783-676.730435c-198.121739 0-358.4 161.391304-358.4 359.513043S313.878261 729.043478 512 729.043478s358.4-161.391304 358.4-359.513043S710.121739 8.904348 512 8.904348z m161.391304 261.565217c17.808696-17.808696 17.808696-45.634783 0-63.443478-8.904348-8.904348-20.034783-13.356522-31.165217-13.356522-11.130435 0-22.26087 4.452174-31.165217 13.356522L480.834783 337.252174c-7.791304 8.904348-13.356522 20.034783-13.356522 31.165217V608.834783c0 24.486957 20.034783 44.521739 44.521739 44.521739s44.521739-20.034783 44.521739-44.521739v-221.495653l116.869565-116.869565z"  horiz-adv-x="1024" />

    
    <glyph glyph-name="arrow-thin-right" unicode="&#58892;" d="M921.6 352.834783l-277.147826-278.26087c-8.904348-8.904348-20.034783-13.356522-31.165217-13.356522-11.130435 0-22.26087 4.452174-31.165218 13.356522-17.808696 17.808696-17.808696 45.634783 0 63.443478L783.582609 339.478261H133.565217c-24.486957 0-44.521739 20.034783-44.521739 44.521739s20.034783 44.521739 44.521739 44.521739h650.017392L581.008696 631.095652c-17.808696 17.808696-17.808696 45.634783 0 63.443478 17.808696 17.808696 45.634783 17.808696 63.443478 0l277.147826-278.260869c17.808696-17.808696 17.808696-46.747826 0-63.443478z"  horiz-adv-x="1024" />

    
    <glyph glyph-name="arrow-up" unicode="&#58893;" d="M878.191304 475.269565l-333.913043 340.591305C535.373913 824.765217 524.243478 829.217391 512 829.217391s-23.373913-4.452174-32.278261-13.356521l-333.913043-340.591305c-12.243478-12.243478-16.695652-34.504348-8.904348-50.086956 6.678261-16.695652 23.373913-28.93913 41.182609-28.939131h144.695652v-411.826087c0-24.486957 25.6-44.521739 50.086956-44.521739h278.26087c24.486957 0 50.086957 20.034783 50.086956 44.521739V395.130435h144.695652c17.808696 0 34.504348 13.356522 41.182609 28.93913 6.678261 16.695652 3.33913 37.843478-8.904348 51.2zM651.130435 484.173913c-24.486957 0-38.956522-15.582609-38.956522-40.069565V27.826087H411.826087V444.104348c0 24.486957-14.469565 40.069565-38.956522 40.069565h-89.043478L512 716.8 740.173913 484.173913h-89.043478z"  horiz-adv-x="1024" />

    
    <glyph glyph-name="backspace" unicode="&#58894;" d="M1024 388.452174v-197.008696c0-26.713043-16.695652-48.973913-44.521739-48.973913s-44.521739 22.26087-44.521739 48.973913V338.365217H174.747826l113.530435-112.417391c18.921739-18.921739 17.808696-50.086957-2.226087-70.121739-10.017391-10.017391-23.373913-14.469565-36.730435-14.469565-12.243478 0-25.6 4.452174-35.617391 14.469565l-200.347826 197.008696C5.565217 361.73913 0 375.095652 0 388.452174c0 13.356522 5.565217 25.6 14.469565 34.504348l199.234783 197.008695c18.921739 18.921739 51.2 18.921739 70.121739 0 18.921739-18.921739 18.921739-50.086957-1.113044-70.121739L169.182609 437.426087h803.617391c13.356522 0 27.826087-5.565217 36.730435-14.469565 8.904348-8.904348 14.469565-22.26087 14.469565-34.504348z"  horiz-adv-x="1024" />

    
    <glyph glyph-name="article" unicode="&#58895;" d="M845.913043 873.73913H178.086957c-24.486957 0-44.521739-20.034783-44.52174-44.521739v-890.434782c0-24.486957 20.034783-44.521739 44.52174-44.521739h667.826086c24.486957 0 44.521739 20.034783 44.52174 44.521739V829.217391c0 24.486957-20.034783 44.521739-44.52174 44.521739z m-44.521739-890.434782H222.608696V784.695652h578.782608v-801.391304zM333.913043 144.695652c0 21.147826 17.808696 38.956522 38.956522 38.956522h264.904348c21.147826 0 38.956522-17.808696 38.956522-38.956522S660.034783 105.73913 637.773913 105.73913H372.869565c-21.147826 0-38.956522 17.808696-38.956522 38.956522z m0 155.826087c0 21.147826 17.808696 38.956522 38.956522 38.956522h264.904348c21.147826 0 38.956522-17.808696 38.956522-38.956522S660.034783 261.565217 637.773913 261.565217H372.869565c-21.147826 0-38.956522 17.808696-38.956522 38.956522z m345.043479 322.782609c0 21.147826-17.808696 38.956522-38.956522 38.956522h-267.130435c-21.147826 0-38.956522-17.808696-38.956522-38.956522v-155.826087c0-21.147826 17.808696-38.956522 38.956522-38.956522h267.130435c21.147826 0 38.956522 17.808696 38.956522 38.956522v155.826087zM411.826087 584.347826h189.217391v-77.913043H411.826087v77.913043z"  horiz-adv-x="1024" />

    
    <glyph glyph-name="archive" unicode="&#58896;" d="M174.747826 651.130435c0 24.486957 20.034783 44.521739 44.521739 44.521739h584.347826c24.486957 0 44.521739-20.034783 44.521739-44.521739s-20.034783-44.521739-44.521739-44.521739H219.269565c-24.486957 0-44.521739 20.034783-44.521739 44.521739z m117.982609 111.304348h438.53913c21.147826 0 38.956522 17.808696 38.956522 38.956521S752.417391 840.347826 731.269565 840.347826H292.730435c-21.147826 0-38.956522-17.808696-38.956522-38.956522s17.808696-38.956522 38.956522-38.956521zM1024 599.930435v-121.321739c0-4.452174-1.113043-8.904348-2.226087-12.243479L879.304348-51.2c-5.565217-18.921739-22.26087-32.278261-42.295652-32.278261H184.765217c-20.034783 0-37.843478 13.356522-43.408695 33.391304L2.226087 466.365217c-1.113043 2.226087-1.113043 4.452174-2.226087 6.678261V599.930435c0 24.486957 20.034783 44.521739 44.521739 44.521739s44.521739-20.034783 44.521739-44.521739V517.565217h845.913044v82.365218c0 24.486957 20.034783 44.521739 44.521739 44.521739s44.521739-20.034783 44.521739-44.521739zM920.486957 428.521739H102.4l115.756522-422.956522h584.347826l117.982609 422.956522zM380.66087 205.913043h262.67826c24.486957 0 44.521739 20.034783 44.52174 44.52174s-20.034783 44.521739-44.52174 44.521739H380.66087c-24.486957 0-44.521739-20.034783-44.52174-44.521739s20.034783-44.521739 44.52174-44.52174z"  horiz-adv-x="1024" />

    
    <glyph glyph-name="basket" unicode="&#58897;" d="M979.478261 573.217391H857.043478s-1.113043 3.33913-1.113043 4.452174L645.565217 834.782609c-15.582609 18.921739-43.408696 22.26087-62.330434 6.678261s-22.26087-45.634783-6.678261-64.556522L742.4 573.217391H281.6l165.843478 203.686957c15.582609 18.921739 13.356522 47.86087-6.678261 63.443478-18.921739 15.582609-46.747826 13.356522-62.330434-5.565217L168.069565 576.556522c0-1.113043-1.113043-3.33913-1.113043-3.339131H44.521739c-24.486957 0-44.521739-15.582609-44.521739-40.069565v-166.956522C0 341.704348 20.034783 317.217391 44.521739 317.217391h14.469565l83.478261-338.365217c8.904348-38.956522 43.408696-62.330435 83.478261-62.330435h572.104348c40.069565 0 73.46087 24.486957 83.478261 62.330435L965.008696 317.217391H979.478261c24.486957 0 44.521739 24.486957 44.521739 48.973913v166.956522c0 24.486957-20.034783 40.069565-44.521739 40.069565zM89.043478 484.173913h845.913044v-77.913043H89.043478v77.913043z m706.782609-478.608696h-567.652174l-77.913043 311.652174h723.47826l-77.913043-311.652174z"  horiz-adv-x="1024" />

    
    <glyph glyph-name="battery-empty" unicode="&#58898;" d="M979.478261 506.434783h-33.391304V628.869565c0 24.486957-18.921739 44.521739-44.52174 44.521739H44.521739c-24.486957 0-44.521739-20.034783-44.521739-44.521739v-489.73913c0-24.486957 20.034783-44.521739 44.521739-44.521739h857.043478c24.486957 0 44.521739 20.034783 44.52174 44.521739V261.565217h33.391304c24.486957 0 44.521739 15.582609 44.521739 40.069566V466.365217c0 24.486957-20.034783 40.069565-44.521739 40.069566zM857.043478 183.652174H89.043478V584.347826h768v-400.695652z"  horiz-adv-x="1024" />

    
    <glyph glyph-name="blog" unicode="&#58903;" d="M845.913043 873.73913H178.086957c-24.486957 0-44.521739-20.034783-44.52174-44.521739v-890.434782c0-24.486957 20.034783-44.521739 44.52174-44.521739h667.826086c24.486957 0 44.521739 20.034783 44.52174 44.521739V829.217391c0 24.486957-20.034783 44.521739-44.52174 44.521739z m-44.521739-890.434782H222.608696V784.695652h578.782608v-801.391304zM317.217391 172.521739c0 24.486957 20.034783 44.521739 44.521739 44.521739h300.52174c24.486957 0 44.521739-20.034783 44.521739-44.521739s-20.034783-44.521739-44.521739-44.521739h-300.52174c-24.486957 0-44.521739 20.034783-44.521739 44.521739z m6.678261 211.478261c0 24.486957 20.034783 44.521739 44.521739 44.521739h292.730435c24.486957 0 44.521739-20.034783 44.521739-44.521739s-20.034783-44.521739-44.521739-44.521739H368.417391c-24.486957 0-44.521739 20.034783-44.521739 44.521739z m0 211.478261c0 24.486957 20.034783 44.521739 44.521739 44.521739h292.730435c24.486957 0 44.521739-20.034783 44.521739-44.521739s-20.034783-44.521739-44.521739-44.521739H368.417391c-24.486957 0-44.521739 20.034783-44.521739 44.521739z"  horiz-adv-x="1024" />

    
    <glyph glyph-name="bell" unicode="&#58904;" d="M934.497286 99.926167c-74.492942 0-103.400651 43.361564-103.400652 315.761129 0 213.472313-96.729642 346.892508-263.504886 366.905538V851.526602c0 24.460369-20.013029 44.473398-44.473398 44.473398s-44.473398-20.013029-44.473399-44.473398v-66.710098C300.751357 770.362649 197.350706 634.718784 197.350706 416.799131c0-272.399566-32.243214-315.761129-107.847992-315.761129-23.348534-1.111835-44.473398-17.789359-44.473398-42.249728C45.029316 33.216069 65.042345 16.538545 89.502714 16.538545h289.077091c3.335505-33.355049 13.34202-74.492942 40.026058-103.400651 23.348534-25.572204 54.479913-40.026059 91.170467-40.026059 36.690554 0 67.821933 15.565689 91.170467 40.026059 27.795874 30.019544 38.914224 70.045603 43.361563 103.400651H934.497286c24.460369 0 44.473398 16.677524 44.473398 42.249729 0 24.460369-20.013029 41.137894-44.473398 41.137893zM536.460369-26.823018c-4.44734-4.44734-11.11835-11.11835-26.684039-11.11835-14.453855 0-21.124864 6.67101-25.572204 11.11835-7.782845 10.006515-13.34202 21.124864-15.56569 43.361563H556.473398c-4.44734-22.236699-10.006515-33.355049-20.013029-43.361563zM518.67101 105.485342H242.935939c41.137894 77.828447 41.137894 199.018458 41.137894 312.425624 0 181.229099 78.940282 276.846906 221.255157 276.846906h12.230185c142.314875 0 221.255157-95.617807 221.255157-276.846906 0-113.407166 0-234.597177 41.137894-312.425624H518.67101z m157.880564 394.701412c1.111835-21.124864-15.565689-40.026059-36.690553-41.137894h-2.22367c-20.013029 0-37.802389 15.565689-38.914224 36.690554-3.335505 50.032573-42.249729 67.821933-46.697068 70.045602-20.013029 8.89468-28.907709 31.131379-21.124865 51.144409 7.782845 20.013029 30.019544 28.907709 50.032574 21.124864 4.44734-2.22367 90.058632-37.802389 95.617806-137.867535z"  horiz-adv-x="1024" />

    
    <glyph glyph-name="bookmark" unicode="&#58905;" d="M712.347826 896H311.652174c-24.486957 0-44.521739-20.034783-44.521739-44.521739v-934.956522a44.8 44.8 0 0 1 44.521739-44.521739c12.243478 0 23.373913 4.452174 32.278261 14.469565l163.617391 173.634783 172.521739-173.634783c12.243478-12.243478 32.278261-16.695652 48.973913-10.017391 16.695652 5.565217 27.826087 22.26087 27.826087 40.069565V851.478261c0 24.486957-20.034783 44.521739-44.521739 44.521739z m-44.521739-871.513043L538.713043 156.93913c-8.904348 8.904348-20.034783 15.582609-31.165217 15.582609-12.243478 0-23.373913-7.791304-32.278261-16.695652L356.173913 28.93913V806.956522h311.652174v-782.469565z"  horiz-adv-x="1024" />

    
    <glyph glyph-name="bold" unicode="&#58907;" d="M668.93913 404.034783c41.182609 40.069565 66.782609 96.834783 66.782609 158.052174 0 122.434783-100.173913 222.608696-222.608696 222.608695H278.26087c-24.486957 0-44.521739-20.034783-44.52174-44.521739v-712.347826c0-24.486957 20.034783-44.521739 44.52174-44.521739h289.391304c122.434783 0 222.608696 100.173913 222.608696 222.608695 0 85.704348-48.973913 160.278261-121.32174 198.12174zM322.782609 695.652174h190.330434c73.46087 0 133.565217-60.104348 133.565218-133.565217s-60.104348-133.565217-133.565218-133.565218H322.782609V695.652174z m244.869565-623.304348H322.782609V339.478261h244.869565c73.46087 0 133.565217-60.104348 133.565217-133.565218s-60.104348-133.565217-133.565217-133.565217z"  horiz-adv-x="1024" />

    
    <glyph glyph-name="bookmarks" unicode="&#58908;" d="M589.846451 706.944333H267.339726c-24.466027 0-44.483686-16.681382-44.483687-41.147409V-82.641097a44.761709 44.761709 0 0 1 44.483687-44.483686c12.233014 0 23.353935 4.448369 32.250672 13.345105l125.666414 132.338967 132.338966-133.451059c12.233014-12.233014 32.250673-16.681382 48.932055-10.008829C623.209216-117.115954 634.330137-100.434572 634.330137-82.641097V665.796924c0 24.466027-20.017659 41.14741-44.483686 41.147409z m-44.483686-681.712491l-88.967373 90.079465c-8.896737 8.896737-20.017659 13.345106-31.13858 13.345105-12.233014 0-23.353935-5.560461-32.250673-14.457198L311.823412 28.568118V617.976961h233.539353v-592.745119zM790.023039 862.637235v-748.438021c0-21.129751-17.793474-38.923225-38.923225-38.923225S712.176588 93.069463 712.176588 114.199214V818.153549H478.637235v-14.457198c0-21.129751-17.793474-38.923225-38.923225-38.923225S400.790784 782.5666 400.790784 803.696351V862.637235c0 21.129751 12.233014 33.362765 33.362765 33.362765h322.506725c21.129751 0 33.362765-12.233014 33.362765-33.362765z"  horiz-adv-x="1024" />

    
    <glyph glyph-name="box" unicode="&#58909;" d="M832.201572 628.869565H193.314616c-24.486957 0-44.521739-20.034783-44.521739-44.521739l-6.678261-567.652174c0-12.243478 4.452174-23.373913 13.356521-32.278261s20.034783-13.356522 31.165218-13.356521h650.017391c12.243478 0 23.373913 4.452174 31.165217 13.356521 8.904348 8.904348 13.356522 20.034783 13.356522 31.165218l-4.452174 567.652174c0 25.6-20.034783 45.634783-44.521739 45.634782zM512.758094 61.217391H231.158094l5.565217 478.608696h550.956522l3.33913-478.608696H512.758094z m142.469565 356.173913c0-24.486957-20.034783-44.521739-44.521739-44.521739H414.810268c-24.486957 0-44.521739 20.034783-44.521739 44.521739s20.034783 44.521739 44.521739 44.521739h194.782609c25.6 0 45.634783-20.034783 45.634782-44.521739z m333.913044 179.2c-3.33913-1.113043-6.678261-1.113043-8.904348-1.113043-21.147826 0-40.069565 14.469565-43.408696 35.617391L922.358094 706.782609H103.158094l-14.469565-75.686957C84.236355 606.608696 60.862442 591.026087 36.375485 595.478261 11.888529 599.930435-3.69408 623.304348 0.758094 647.791304l21.147826 111.304348C27.471137 780.243478 45.279833 795.826087 66.427659 795.826087H957.975485c21.147826 0 40.069565-15.582609 43.408696-35.617391l21.147826-111.304348c5.565217-24.486957-10.017391-47.86087-33.391304-52.313044z"  horiz-adv-x="1024" />

    
    <glyph glyph-name="briefcase" unicode="&#58910;" d="M1010.643478 641.113043c-7.791304 7.791304-18.921739 10.017391-31.165217 10.017392H745.73913V784.695652c0 24.486957-22.26087 44.521739-46.747826 44.521739H325.008696C300.521739 829.217391 278.26087 809.182609 278.26087 784.695652v-133.565217H44.521739c-24.486957 0-44.521739-14.469565-44.521739-38.956522V-16.695652c0-24.486957 20.034783-44.521739 44.521739-44.521739h934.956522c24.486957 0 44.521739 20.034783 44.521739 44.521739V609.947826c0 12.243478-4.452174 22.26087-13.356522 31.165217zM367.304348 740.173913h289.391304v-89.043478H367.304348v89.043478z m567.652174-178.086956v-233.739131H623.304348v16.695652c0 18.921739-17.808696 27.826087-36.730435 27.826087H437.426087c-18.921739 0-36.730435-10.017391-36.730435-27.826087V328.347826H89.043478V562.086957h845.913044zM556.521739 306.086957v-22.26087h-89.043478v22.26087h89.043478zM89.043478 27.826087V261.565217h311.652174v-11.130434c0-18.921739 17.808696-33.391304 36.730435-33.391305h150.26087c18.921739 0 36.730435 15.582609 36.730434 33.391305v11.130434h311.652174v-233.73913H89.043478z"  horiz-adv-x="1024" />

    
    <glyph glyph-name="broadcast" unicode="&#58912;" d="M1018.434783 514.226087c-10.017391 33.391304-30.052174 60.104348-60.104348 75.686956-37.843478 20.034783-82.365217 17.808696-113.530435 12.243479L780.243478 830.330435c-4.452174 15.582609-16.695652 27.826087-32.278261 31.165217-15.582609 3.33913-32.278261-1.113043-43.408695-13.356522-159.165217-178.086957-224.834783-221.495652-400.695652-298.295652l-138.017392-40.069565C44.521739 475.269565-25.6 346.156522 8.904348 224.834783c16.695652-58.991304 55.652174-109.078261 110.191304-139.130435 34.504348-18.921739 72.347826-28.93913 110.191305-28.939131 17.808696 0 36.730435 2.226087 54.53913 6.678261l14.469565-52.313043c7.791304-27.826087 23.373913-52.313043 43.408696-72.347826l23.373913-22.26087c8.904348-7.791304 20.034783-12.243478 31.165217-12.243478 12.243478 0 23.373913 4.452174 32.278261 13.356522 16.695652 17.808696 16.695652 45.634783-2.226087 63.443478l-23.373913 22.260869c-8.904348 8.904348-15.582609 20.034783-18.921739 32.278261l-14.469565 52.313044 64.556522 18.921739c184.765217 27.826087 268.243478 25.6 494.191304-38.956522 4.452174-1.113043 7.791304-2.226087 12.243478-2.226087 11.130435 0 23.373913 4.452174 31.165218 13.356522 11.130435 11.130435 15.582609 27.826087 11.130434 43.408696L917.147826 350.608696c28.93913 11.130435 67.895652 31.165217 90.156522 67.895652 16.695652 28.93913 21.147826 61.217391 11.130435 95.721739zM162.504348 163.617391c-33.391304 17.808696-56.765217 48.973913-67.895652 84.591305-21.147826 75.686957 22.26087 153.6 95.721739 175.860869l100.173913 28.939131 45.634782-161.391305 31.165218-111.304348-100.173913-28.93913c-34.504348-10.017391-72.347826-5.565217-104.626087 12.243478z m453.008695 48.973913c-50.086957 0-100.173913-4.452174-159.165217-12.243478L391.791304 428.521739l-15.582608 55.652174c140.243478 64.556522 215.930435 114.643478 340.591304 244.869565l158.052174-555.408695c-105.73913 27.826087-181.426087 38.956522-259.339131 38.956521z m316.104348 252.66087c-6.678261-12.243478-23.373913-21.147826-38.956521-27.826087l-22.26087 77.913043c16.695652 2.226087 35.617391 2.226087 47.86087-4.452173 5.565217-3.33913 11.130435-7.791304 15.582608-20.034783 3.33913-13.356522 0-20.034783-2.226087-25.6z m-282.713043 73.460869c12.243478-17.808696 8.904348-42.295652-8.904348-54.53913-41.182609-28.93913-87.930435-54.53913-90.156522-55.652174-5.565217-3.33913-12.243478-4.452174-17.808695-4.452174-14.469565 0-27.826087 7.791304-34.504348 21.147826-10.017391 18.921739-2.226087 42.295652 16.695652 52.313044 0 0 44.521739 23.373913 80.13913 48.973913 17.808696 14.469565 42.295652 10.017391 54.539131-7.791305z"  horiz-adv-x="1024" />

    
    <glyph glyph-name="browser-upload" unicode="&#58915;" d="M556.521739 372.869565l1.113044-456.347826c0-24.486957-20.034783-44.521739-44.52174-44.521739s-44.521739 20.034783-44.521739 44.521739L467.478261 373.982609 338.365217 244.869565c-17.808696-17.808696-45.634783-16.695652-63.443478 0-17.808696 17.808696-16.695652 45.634783 0 63.443478l204.8 203.686957c17.808696 16.695652 45.634783 16.695652 62.330435 0l204.8-203.686957c17.808696-17.808696 17.808696-45.634783 0-63.443478-8.904348-8.904348-20.034783-13.356522-31.165217-13.356522-11.130435 0-22.26087 4.452174-31.165218 13.356522L556.521739 372.869565zM1024 851.478261v-742.4c0-24.486957-20.034783-47.86087-44.521739-47.86087H705.669565c-24.486957 0-44.521739 20.034783-44.521739 44.521739s20.034783 44.521739 44.521739 44.52174H934.956522V628.869565H89.043478v-478.608695h232.626087c24.486957 0 44.521739-20.034783 44.521739-44.52174s-20.034783-44.521739-44.521739-44.521739H44.521739c-24.486957 0-44.521739 23.373913-44.521739 47.86087V851.478261c0 24.486957 20.034783 44.521739 44.521739 44.521739h934.956522c24.486957 0 44.521739-20.034783 44.521739-44.521739zM445.217391 706.782609h111.304348V806.956522H445.217391v-100.173913z m-66.782608 100.173913H267.130435v-100.173913h111.304348V806.956522zM89.043478 706.782609h111.304348V806.956522H89.043478v-100.173913z m845.913044 0V806.956522H623.304348v-100.173913h311.652174z"  horiz-adv-x="1024" />

    
    <glyph glyph-name="browser" unicode="&#58916;" d="M979.478261 795.826087H44.521739c-24.486957 0-44.521739-20.034783-44.521739-44.521739v-734.608696c0-24.486957 20.034783-44.521739 44.521739-44.521739h934.956522c24.486957 0 44.521739 20.034783 44.521739 44.521739V751.304348c0 24.486957-20.034783 44.521739-44.521739 44.521739z m-44.521739-189.217391H623.304348v100.173913h311.652174v-100.173913z m-667.826087 0v100.173913h111.304348v-100.173913H267.130435z m178.086956 100.173913h111.304348v-100.173913H445.217391v100.173913z m-244.869565 0v-100.173913H89.043478v100.173913h111.304348zM89.043478 61.217391V528.695652h845.913044v-467.478261H89.043478z"  horiz-adv-x="1024" />

    
    <glyph glyph-name="calendar" unicode="&#58917;" d="M244.869565 653.356522V795.826087c0 31.165217 24.486957 55.652174 55.652174 55.652174s55.652174-24.486957 55.652174-55.652174v-142.469565c0-31.165217-24.486957-55.652174-55.652174-55.652174s-55.652174 24.486957-55.652174 55.652174z m478.608696-55.652174c31.165217 0 55.652174 24.486957 55.652174 55.652174V795.826087c0 31.165217-24.486957 55.652174-55.652174 55.652174s-55.652174-24.486957-55.652174-55.652174v-142.469565c0-31.165217 24.486957-55.652174 55.652174-55.652174z m300.521739 126.886956V-27.826087c0-24.486957-20.034783-44.521739-44.521739-44.521739H44.521739c-24.486957 0-44.521739 20.034783-44.521739 44.521739V724.591304C0 749.078261 20.034783 773.565217 44.521739 773.565217h103.513044c24.486957 0 44.521739-20.034783 44.521739-44.521739s-20.034783-44.521739-44.521739-44.521739H89.043478v-189.217391h845.913044V684.521739h-58.991305c-24.486957 0-44.521739 20.034783-44.521739 44.521739s20.034783 44.521739 44.521739 44.521739H979.478261c24.486957 0 44.521739-24.486957 44.521739-48.973913zM934.956522 16.695652V417.391304H89.043478v-400.695652h845.913044zM441.878261 684.521739h140.243478c24.486957 0 44.521739 20.034783 44.521739 44.521739s-20.034783 44.521739-44.521739 44.521739H441.878261c-24.486957 0-44.521739-20.034783-44.521739-44.521739s20.034783-44.521739 44.521739-44.521739z"  horiz-adv-x="1024" />

    
    <glyph glyph-name="brush" unicode="&#58918;" d="M1024.521127 799.165217c0 25.6-10.017391 48.973913-27.826087 66.782609l-2.226087 2.226087C957.738518 904.904348 898.747214 904.904348 862.016779 869.286957L318.851562 365.078261c-73.46087 15.582609-152.486957-4.452174-208.139131-61.217391C33.912431 228.173913 35.025475 143.582609 36.138518 92.382609v-18.921739c-1.113043-41.182609-22.26087-91.269565-31.165217-107.965218-5.565217-11.130435-6.678261-24.486957-2.226087-35.617391 4.452174-12.243478 13.356522-21.147826 24.486956-25.6 52.313043-22.26087 104.626087-32.278261 154.713044-32.278261 87.930435 0 171.408696 33.391304 234.852174 96.834783 52.313043 52.313043 81.252174 115.756522 81.252174 179.2 0 15.582609-2.226087 30.052174-4.452174 44.521739l503.095652 540.93913C1014.503736 751.304348 1024.521127 774.678261 1024.521127 799.165217zM354.468953 32.278261c-65.669565-65.669565-155.826087-86.817391-250.434783-60.104348 10.017391 27.826087 20.034783 64.556522 21.147827 100.173913v22.26087c-1.113043 45.634783-2.226087 96.834783 47.860869 145.808695 53.426087 53.426087 141.356522 53.426087 195.895652 0 26.713043-26.713043 41.182609-58.991304 41.182609-92.382608 0-38.956522-20.034783-80.13913-55.652174-115.756522zM934.364605 795.826087l-1.113043-1.113044-479.721739-515.33913c-6.678261 8.904348-13.356522 16.695652-21.147826 24.486957-7.791304 7.791304-16.695652 14.469565-24.486957 21.147826L923.23417 804.730435l1.113044 1.113043c2.226087 2.226087 5.565217 2.226087 7.791304 0l2.226087-2.226087c1.113043-2.226087 1.113043-3.33913 1.113044-4.452174 0-1.113043 0-2.226087-1.113044-3.33913z"  horiz-adv-x="1024" />

    
    <glyph glyph-name="camera" unicode="&#58919;" d="M512 595.478261c-140.243478 0-254.886957-115.756522-254.886957-258.226087C257.113043 194.782609 371.756522 79.026087 512 79.026087S766.886957 194.782609 766.886957 337.252174C766.886957 479.721739 652.243478 595.478261 512 595.478261z m0-428.521739c-91.269565 0-165.843478 75.686957-165.843478 169.182608S420.730435 506.434783 512 506.434783s165.843478-75.686957 165.843478-169.182609S603.269565 166.956522 512 166.956522z m123.547826 159.165217c-2.226087-20.034783-18.921739-33.391304-38.956522-33.391304h-5.565217c-21.147826 3.33913-36.730435 22.26087-33.391304 43.408695 4.452174 32.278261-33.391304 50.086957-35.617392 51.2-18.921739 8.904348-27.826087 32.278261-18.921739 51.2 8.904348 18.921739 31.165217 27.826087 51.2 20.034783 35.617391-15.582609 91.269565-60.104348 81.252174-132.452174z m-85.704348-48.973913c7.791304-7.791304 13.356522-20.034783 13.356522-31.165217 0-11.130435-4.452174-23.373913-13.356522-31.165218-8.904348-7.791304-20.034783-13.356522-31.165217-13.356521s-23.373913 4.452174-31.165218 13.356521c-7.791304 8.904348-13.356522 20.034783-13.356521 31.165218 0 12.243478 4.452174 23.373913 13.356521 31.165217 8.904348 8.904348 20.034783 13.356522 31.165218 13.356522s23.373913-4.452174 31.165217-13.356522zM979.478261 606.608696H808.069565l-47.860869 178.086956c-5.565217 18.921739-23.373913 33.391304-43.408696 33.391305H306.086957c-20.034783 0-37.843478-14.469565-43.408696-33.391305l-47.86087-178.086956H44.521739c-24.486957 0-44.521739-18.921739-44.521739-43.408696V-5.565217c0-24.486957 20.034783-44.521739 44.521739-44.52174h934.956522c24.486957 0 44.521739 20.034783 44.521739 44.52174V563.2c0 24.486957-20.034783 43.408696-44.521739 43.408696z m-44.521739-567.652174H89.043478V517.565217h160.278261c20.034783 0 37.843478 14.469565 43.408696 33.391305l47.860869 178.086956h342.817392l47.860869-178.086956c5.565217-18.921739 23.373913-33.391304 43.408696-33.391305H934.956522v-478.608695z"  horiz-adv-x="1024" />

    
    <glyph glyph-name="card" unicode="&#58921;" d="M1024 635.547826c0 45.634783-36.730435 82.365217-82.365217 82.365217H82.365217C36.730435 717.913043 0 681.182609 0 635.547826v-504.208696c0-44.521739 36.730435-81.252174 82.365217-81.252173h860.382609c45.634783 0 82.365217 36.730435 82.365217 82.365217V635.547826z m-89.043478-6.678261v-77.913043H89.043478v77.913043h845.913044zM89.043478 139.130435V417.391304h845.913044v-278.260869H89.043478z m762.434783 144.695652c0-24.486957-20.034783-44.521739-44.521739-44.521739h-211.478261c-24.486957 0-44.521739 20.034783-44.521739 44.521739s20.034783 44.521739 44.521739 44.521739h211.478261c24.486957 0 44.521739-20.034783 44.521739-44.521739z"  horiz-adv-x="1025" />

    
    <glyph glyph-name="checkmark" unicode="&#58922;" d="M382.886957 94.608696c-13.356522 0-25.6 4.452174-35.617392 14.469565L125.773913 330.573913c-20.034783 20.034783-20.034783 51.2 0 71.234783 20.034783 20.034783 51.2 20.034783 71.234783 0l186.991304-185.878261 444.104348 442.991304c20.034783 20.034783 51.2 20.034783 71.234782 0 20.034783-20.034783 20.034783-51.2 0-71.234782l-479.721739-478.608696c-11.130435-10.017391-23.373913-14.469565-36.730434-14.469565z"  horiz-adv-x="1024" />

    
    <glyph glyph-name="chevron-down" unicode="&#58923;" d="M512 194.782609c-12.243478 0-23.373913 4.452174-32.278261 13.356521l-278.260869 289.391305c-16.695652 17.808696-16.695652 45.634783 1.113043 63.443478 17.808696 16.695652 45.634783 16.695652 63.443478-1.113043l245.982609-256 245.982609 256c16.695652 17.808696 45.634783 17.808696 63.443478 1.113043 17.808696-16.695652 17.808696-45.634783 1.113043-63.443478l-278.260869-289.391305c-8.904348-8.904348-20.034783-13.356522-32.278261-13.356521z"  horiz-adv-x="1024" />

    
    <glyph glyph-name="cart" unicode="&#58924;" d="M1021.773913 592.13913L902.678261 217.043478c-8.904348-26.713043-32.278261-44.521739-60.104348-44.521739H382.886957c-26.713043 0-52.313043 16.695652-61.217392 41.182609L145.808696 684.521739H44.521739c-24.486957 0-44.521739 20.034783-44.521739 44.521739s20.034783 44.521739 44.521739 44.521739h132.452174c18.921739 0 35.617391-12.243478 42.295652-30.052174L400.695652 261.565217h422.956522l94.608696 300.52174H394.017391c-24.486957 0-44.521739 20.034783-44.521739 44.521739s20.034783 44.521739 44.521739 44.521739H979.478261c14.469565 0 27.826087-7.791304 35.617391-18.921739 8.904348-11.130435 11.130435-26.713043 6.678261-40.069566z m-616.626087-478.608695c-18.921739 0-37.843478-7.791304-51.2-21.147826-13.356522-13.356522-21.147826-32.278261-21.147826-51.2 0-18.921739 7.791304-37.843478 21.147826-51.2 13.356522-13.356522 32.278261-21.147826 51.2-21.147826s37.843478 7.791304 51.2 21.147826c13.356522 13.356522 21.147826 32.278261 21.147826 51.2 0 18.921739-7.791304 37.843478-21.147826 51.2-13.356522 13.356522-32.278261 21.147826-51.2 21.147826z m399.582609 0c-18.921739 0-37.843478-7.791304-51.2-21.147826s-21.147826-32.278261-21.147826-51.2c0-18.921739 7.791304-37.843478 21.147826-51.2 13.356522-13.356522 32.278261-21.147826 51.2-21.147826 18.921739 0 37.843478 7.791304 51.2 21.147826 13.356522 13.356522 21.147826 32.278261 21.147826 51.2 0 18.921739-7.791304 37.843478-21.147826 51.2s-32.278261 21.147826-51.2 21.147826z"  horiz-adv-x="1024" />

    
    <glyph glyph-name="checklist" unicode="&#58925;" d="M402.921739 740.173913c0 31.165217 24.486957 55.652174 55.652174 55.652174H946.086957c31.165217 0 55.652174-24.486957 55.652173-55.652174s-24.486957-55.652174-55.652173-55.652174H458.573913c-30.052174 0-55.652174 24.486957-55.652174 55.652174zM946.086957 439.652174H458.573913c-31.165217 0-55.652174-24.486957-55.652174-55.652174s24.486957-55.652174 55.652174-55.652174H946.086957c31.165217 0 55.652174 24.486957 55.652173 55.652174s-24.486957 55.652174-55.652173 55.652174z m0-356.173913H458.573913c-31.165217 0-55.652174-24.486957-55.652174-55.652174s24.486957-55.652174 55.652174-55.652174H946.086957c31.165217 0 55.652174 24.486957 55.652173 55.652174s-24.486957 55.652174-55.652173 55.652174zM278.26087 823.652174C278.26087 844.8 260.452174 862.608696 239.304348 862.608696h-166.956522C51.2 862.608696 33.391304 844.8 33.391304 823.652174v-166.956522C33.391304 635.547826 51.2 617.73913 72.347826 617.73913h166.956522c21.147826 0 38.956522 17.808696 38.956522 38.956522v166.956522z m0-523.130435c0-21.147826-17.808696-38.956522-38.956522-38.956522h-166.956522C51.2 261.565217 33.391304 279.373913 33.391304 300.521739v166.956522C33.391304 488.626087 51.2 506.434783 72.347826 506.434783h166.956522c21.147826 0 38.956522-17.808696 38.956522-38.956522v-166.956522zM211.478261 428.521739h-100.173913v-89.043478h100.173913v89.043478z m66.782609-484.173913c0-21.147826-17.808696-38.956522-38.956522-38.956522h-166.956522C51.2-94.608696 33.391304-76.8 33.391304-55.652174v166.956522C33.391304 132.452174 51.2 150.26087 72.347826 150.26087h166.956522c21.147826 0 38.956522-17.808696 38.956522-38.956522v-166.956522zM211.478261 72.347826h-100.173913v-100.173913h100.173913v100.173913z"  horiz-adv-x="1024" />

    
    <glyph glyph-name="chevron-right" unicode="&#58926;" d="M701.217391 384c0-12.243478-4.452174-23.373913-13.356521-32.278261l-289.391305-278.260869C389.565217 65.669565 378.434783 61.217391 367.304348 61.217391c-12.243478 0-23.373913 4.452174-32.278261 13.356522-16.695652 17.808696-16.695652 45.634783 1.113043 63.443478l256 245.982609-256 245.982609c-17.808696 16.695652-17.808696 45.634783-1.113043 63.443478 16.695652 17.808696 45.634783 17.808696 63.443478 1.113043l289.391305-278.260869c8.904348-8.904348 13.356522-20.034783 13.356521-32.278261z"  horiz-adv-x="1024" />

    
    <glyph glyph-name="chevron-left" unicode="&#58927;" d="M687.86087 138.017391c17.808696-16.695652 17.808696-45.634783 1.113043-63.443478-8.904348-8.904348-21.147826-13.356522-32.278261-13.356522s-22.26087 4.452174-31.165217 12.243479l-289.391305 278.260869c-8.904348 8.904348-13.356522 20.034783-13.356521 32.278261s4.452174 23.373913 13.356521 32.278261l289.391305 278.260869c17.808696 16.695652 45.634783 16.695652 63.443478-1.113043 16.695652-17.808696 16.695652-45.634783-1.113043-63.443478L431.86087 384l256-245.982609z"  horiz-adv-x="1024" />

    
    <glyph glyph-name="chevron-up" unicode="&#58928;" d="M790.26087 194.782609c-12.243478 0-23.373913 4.452174-32.278261 13.356521L512 464.13913l-245.982609-256c-16.695652-17.808696-45.634783-17.808696-63.443478-1.113043-17.808696 16.695652-17.808696 45.634783-1.113043 63.443478l278.260869 289.391305c8.904348 8.904348 20.034783 13.356522 32.278261 13.356521s23.373913-4.452174 32.278261-13.356521l278.260869-289.391305c16.695652-17.808696 16.695652-45.634783-1.113043-63.443478C812.521739 199.234783 801.391304 194.782609 790.26087 194.782609z"  horiz-adv-x="1024" />

    
    <glyph glyph-name="clipboard" unicode="&#58929;" d="M857.043478 795.826087H691.2l-17.808696 46.747826c-12.243478 32.278261-43.408696 53.426087-77.913043 53.426087H437.426087c-34.504348 0-65.669565-21.147826-77.913044-53.426087L342.817391 795.826087H166.956522c-24.486957 0-44.521739-22.26087-44.521739-46.747826V-83.478261c0-24.486957 20.034783-44.521739 44.521739-44.521739h690.086956c24.486957 0 44.521739 20.034783 44.521739 44.521739V749.078261C901.565217 773.565217 881.530435 795.826087 857.043478 795.826087z m-483.060869-89.043478c18.921739 0 35.617391 11.130435 42.295652 27.826087L442.991304 806.956522h149.147826l26.713044-72.347826c6.678261-17.808696 23.373913-27.826087 42.295652-27.826087h35.617391l-32.27826-63.443479c-5.565217-8.904348-15.582609-14.469565-26.713044-14.469565H395.130435c-10.017391 0-20.034783 4.452174-25.6 13.356522L332.8 706.782609h41.182609zM812.521739-38.956522H211.478261V706.782609h18.921739l62.330435-111.304348c0-1.113043 1.113043 0 1.113043-1.113044 22.26087-34.504348 60.104348-54.53913 101.286957-54.53913h241.530435c42.295652 0 82.365217 21.147826 103.513043 58.991304 0 1.113043 1.113043 2.226087 1.113044 2.226087l53.426086 105.739131H812.521739v-745.739131z"  horiz-adv-x="1024" />

    
    <glyph glyph-name="clock" unicode="&#58930;" d="M512 896C229.286957 896 0 666.713043 0 384s229.286957-512 512-512 512 229.286957 512 512S794.713043 896 512 896z m0-934.956522C278.26087-38.956522 89.043478 150.26087 89.043478 384S278.26087 806.956522 512 806.956522s422.956522-189.217391 422.956522-422.956522-189.217391-422.956522-422.956522-422.956522z m170.295652 316.104348c17.808696-17.808696 17.808696-45.634783 0-63.443478-8.904348-8.904348-20.034783-13.356522-31.165217-13.356522s-22.26087 4.452174-31.165218 13.356522L480.834783 352.834783c-8.904348 7.791304-13.356522 18.921739-13.356522 31.165217V648.904348c0 24.486957 20.034783 44.521739 44.521739 44.521739s44.521739-20.034783 44.521739-44.521739v-247.095652l125.773913-124.66087z"  horiz-adv-x="1024" />

    
    <glyph glyph-name="clockwise" unicode="&#58931;" d="M967.234783 430.747826L812.521739 274.921739c-8.904348-8.904348-20.034783-13.356522-32.278261-13.356522s-23.373913 4.452174-32.278261 13.356522l-153.6 155.826087c-16.695652 17.808696-16.695652 45.634783 0 63.443478 17.808696 16.695652 45.634783 16.695652 63.443479 0l85.704347-86.817391c-11.130435 161.391304-143.582609 289.391304-304.973913 289.391304C270.469565 695.652174 133.565217 555.408696 133.565217 384s136.904348-311.652174 306.086957-311.652174c62.330435 0 122.434783 18.921739 172.521739 54.539131 20.034783 14.469565 47.86087 8.904348 62.330435-11.130435 14.469565-20.034783 8.904348-47.86087-11.130435-62.330435-65.669565-45.634783-143.582609-70.121739-223.721739-70.121739C221.495652-16.695652 44.521739 162.504348 44.521739 384s176.973913 400.695652 395.130435 400.695652c204.8 0 373.982609-159.165217 392.904348-362.852174l70.121739 71.234783c17.808696 17.808696 45.634783 17.808696 63.443478 0 17.808696-16.695652 17.808696-44.521739 1.113044-62.330435z"  horiz-adv-x="1024" />

    
    <glyph glyph-name="cloud-download" unicode="&#58932;" d="M1012.181218 402.192091c-6.669083-95.590188-80.028995-197.84946-225.637305-197.849459h-101.147757c-24.453304 0-44.460553 21.118763-44.460553 45.572066 0 24.453304 20.007249 45.572067 44.460553 45.572067 0 0 34.456928-1.111514 101.147757-1.111514 88.921105 0 133.381658 56.687205 137.827713 114.485923 4.446055 58.910232-33.345415 124.489548-125.601061 137.827713-12.226652 2.223028-23.34179 8.892111-30.010873 18.895735-6.669083 10.003624-8.892111 23.34179-6.669083 35.568442 12.226652 50.018122-1.111514 90.032619-33.345415 108.928355-27.787845 15.561193-72.248398 15.561193-110.039867-21.118763-10.003624-10.003624-24.453304-14.44968-37.79147-12.226652-13.338166 2.223028-25.564818 11.115138-32.233901 23.34179C486.435182 816.786745 389.73348 823.455828 326.377192 793.444955c-61.13326-28.899359-110.039868-101.147757-72.248398-192.291891 4.446055-11.115138 4.446055-24.453304-1.111514-35.568442s-15.561193-20.007249-26.676331-23.34179C95.182318 501.116821 98.51686 414.418743 101.851401 389.965439c6.669083-47.795094 44.460553-95.590188 103.370785-95.590188h135.604686c24.453304 0 44.460553-20.007249 44.460553-44.460553s-20.007249-43.349039-44.460553-43.349039H205.222186C109.631998 206.565659 28.491489 277.702543 14.04181 376.627273c-11.115138 76.694453 20.007249 178.953725 141.162254 233.417902C128.527733 728.977154 195.218562 829.013397 286.362695 872.362436c93.367161 44.460553 224.525791 32.233901 312.335383-88.921105 54.464177 30.010873 118.931979 32.233901 172.284642 2.223027 45.572067-25.564818 86.698078-80.028995 83.363536-161.169503 115.597437-35.568442 163.392531-135.604686 157.834962-222.302764zM664.277393 133.205747L556.460553 24.277393l-1.111514 403.479516c0 24.453304-20.007249 45.572067-44.460553 45.572066s-44.460553-21.118763-44.460553-45.572066l1.111514-402.368002-107.81684 107.81684c-17.784221 17.784221-45.572067 17.784221-63.356288 0-17.784221-17.784221-17.784221-45.572067 0-63.356287l183.39978-184.511294c8.892111-8.892111 20.007249-13.338166 31.122387-13.338166s23.34179 4.446055 31.122387 13.338166l183.39978 183.39978c17.784221 17.784221 17.784221 45.572067 0 63.356287-15.561193 17.784221-43.349039 17.784221-61.13326 1.111514z"  horiz-adv-x="1024" />

    
    <glyph glyph-name="cloud-upload" unicode="&#58933;" d="M1024 322.782609c-6.678261-96.834783-82.365217-202.573913-230.4-202.573913H690.086957c-24.486957 0-44.521739 18.921739-44.52174 43.408695s20.034783 42.295652 44.52174 42.295652c0 0 35.617391 2.226087 103.513043 2.226087 92.382609 0 138.017391 62.330435 142.469565 121.32174 4.452174 61.217391-34.504348 129.113043-129.113043 142.469565-12.243478 2.226087-23.373913 8.904348-30.052174 18.921739-6.678261 10.017391-8.904348 23.373913-6.678261 35.617391 12.243478 52.313043-1.113043 93.495652-35.617391 112.417392-28.93913 16.695652-75.686957 15.582609-113.530435-21.147827-10.017391-10.017391-24.486957-14.469565-37.843478-12.243478-13.356522 2.226087-25.6 11.130435-32.278261 23.373913-64.556522 121.321739-163.617391 126.886957-229.286957 95.721739-63.443478-30.052174-113.530435-104.626087-74.573913-199.234782 4.452174-11.130435 4.452174-24.486957-1.113043-35.617392s-15.582609-20.034783-26.713044-23.373913C83.478261 425.182609 86.817391 336.13913 90.156522 309.426087c7.791304-48.973913 46.747826-99.06087 106.852174-99.06087l139.130434-1.113043c24.486957 0 44.521739-21.147826 44.52174-45.634783 0-24.486957-20.034783-46.747826-44.52174-46.747826l-138.017391 3.339131C100.173913 120.208696 18.921739 195.895652 3.33913 297.182609c-12.243478 77.913043 21.147826 182.53913 145.808696 238.191304-28.93913 122.434783 40.069565 225.947826 133.565217 269.356522 95.721739 45.634783 230.4 32.278261 319.443479-91.269565 55.652174 31.165217 121.321739 33.391304 175.860869 2.226087 46.747826-26.713043 89.043478-82.365217 84.591305-165.843479 117.982609-35.617391 166.956522-138.017391 161.391304-227.060869z m-355.06087-36.730435c8.904348-8.904348 20.034783-13.356522 31.165218-13.356522 11.130435 0 22.26087 4.452174 31.165217 13.356522 17.808696 17.808696 17.808696 45.634783 0 63.443478l-188.104348 189.217391c-7.791304 7.791304-18.921739 12.243478-31.165217 12.243479-12.243478 0-23.373913-4.452174-31.165217-13.356522l-188.104348-189.217391c-17.808696-17.808696-17.808696-45.634783 0-63.443479 17.808696-17.808696 45.634783-17.808696 63.443478 0l111.304348 114.643479 1.113043-416.278261c0-24.486957 20.034783-44.521739 44.521739-44.521739s44.521739 20.034783 44.52174 44.521739L556.521739 398.469565l112.417391-112.417391z"  horiz-adv-x="1024" />

    
    <glyph glyph-name="cloud" unicode="&#58934;" d="M792.624083 27.826087c-222.608696 0-588.8 1.113043-595.47826 1.113043C100.31104 28.93913 17.945823 102.4 2.363214 203.686957c-12.243478 79.026087 21.147826 184.765217 145.808696 240.417391-28.93913 123.547826 41.182609 228.173913 134.67826 271.582609 58.991304 27.826087 123.547826 31.165217 183.652174 11.130434 52.313043-17.808696 99.06087-53.426087 134.678261-103.513043 55.652174 31.165217 121.321739 33.391304 175.86087 3.33913 46.747826-26.713043 90.156522-82.365217 85.704348-166.956521 119.095652-36.730435 166.956522-140.243478 161.391304-229.286957-7.791304-97.947826-82.365217-202.573913-231.513044-202.573913zM388.589301 651.130435c-24.486957 0-48.973913-5.565217-69.008696-15.582609-64.556522-30.052174-114.643478-105.73913-75.686956-201.460869 4.452174-11.130435 4.452174-24.486957-1.113044-35.617392s-15.582609-20.034783-26.713043-23.373913C83.615388 333.913043 86.954518 243.756522 90.293649 217.043478c7.791304-48.973913 46.747826-99.06087 106.852174-99.060869 3.33913 0 371.756522-1.113043 595.47826-1.113044 92.382609 0 138.017391 60.104348 142.469566 120.208696 4.452174 61.217391-33.391304 130.226087-129.113044 143.582609-12.243478 2.226087-23.373913 8.904348-30.052174 18.921739-6.678261 10.017391-8.904348 23.373913-6.678261 35.617391 12.243478 53.426087-1.113043 94.608696-35.617391 114.643478-28.93913 16.695652-74.573913 15.582609-113.530435-22.260869-10.017391-10.017391-24.486957-14.469565-37.843478-12.243479-14.469565 2.226087-25.6 11.130435-32.278261 23.373913-44.521739 83.478261-105.73913 112.417391-161.391304 112.417392z"  horiz-adv-x="1024" />

    
    <glyph glyph-name="code" unicode="&#58935;" d="M656.695652 61.217391c-12.243478 0-23.373913 4.452174-32.278261 13.356522-16.695652 17.808696-16.695652 45.634783 1.113044 63.443478l256 245.982609-256 245.982609c-17.808696 16.695652-17.808696 45.634783-1.113044 63.443478 16.695652 17.808696 45.634783 17.808696 63.443479 1.113043l289.391304-278.260869c8.904348-8.904348 13.356522-20.034783 13.356522-32.278261s-4.452174-23.373913-13.356522-32.278261l-289.391304-278.260869C678.956522 65.669565 667.826087 61.217391 656.695652 61.217391z m-257.113043 13.356522c16.695652 17.808696 16.695652 45.634783-1.113044 63.443478L142.469565 384l256 245.982609c17.808696 16.695652 17.808696 45.634783 1.113044 63.443478-16.695652 17.808696-45.634783 17.808696-63.443479 1.113043l-289.391304-278.260869C37.843478 407.373913 33.391304 396.243478 33.391304 384s4.452174-23.373913 13.356522-32.278261l289.391304-278.260869C345.043478 65.669565 356.173913 61.217391 367.304348 61.217391c11.130435 0 23.373913 4.452174 32.278261 13.356522z"  horiz-adv-x="1024" />

    
    <glyph glyph-name="copy" unicode="&#58936;" d="M512 652.243478c-7.791304 7.791304-17.808696 10.017391-27.826087 10.017392H151.373913c-22.26087 0-51.2-13.356522-51.2-34.504348v-704.556522c0-22.26087 28.93913-50.086957 51.2-50.086957H678.956522c22.26087 0 33.391304 28.93913 33.391304 50.086957V430.747826c0 10.017391-1.113043 18.921739-8.904348 26.713044L512 652.243478zM622.191304 428.521739H478.608696V572.104348L622.191304 428.521739zM189.217391-38.956522V584.347826h211.478261v-191.443478c0-22.26087 20.034783-42.295652 42.295652-42.295652H634.434783v-389.565218H189.217391z m727.930435 734.608696L723.478261 889.321739c-6.678261 5.565217-13.356522 6.678261-22.26087 6.678261H368.417391C349.495652 896 333.913043 885.982609 333.913043 868.173913v-106.852174c0-18.921739 14.469565-33.391304 33.391305-33.391304s33.391304 15.582609 33.391304 33.391304V829.217391h233.739131v-188.104348c0-18.921739 15.582609-34.504348 34.504347-34.504347H857.043478v-411.826087h-45.634782c-18.921739 0-33.391304-14.469565-33.391305-33.391305s15.582609-33.391304 33.391305-33.391304h84.591304c18.921739 0 27.826087 16.695652 27.826087 35.617391V671.165217c0 8.904348-1.113043 17.808696-6.678261 24.486957zM701.217391 818.086957l143.582609-144.695653H701.217391V818.086957z"  horiz-adv-x="1024" />

    
    <glyph glyph-name="contract-" unicode="&#58937;" d="M450.782609 325.008696c7.791304-8.904348 13.356522-21.147826 13.356521-32.278261v-232.626087c0-24.486957-20.034783-42.295652-44.521739-42.295652h1.113044c-24.486957 0-42.295652 16.695652-42.295652 41.182608V183.652174L100.173913-92.382609c-8.904348-8.904348-22.26087-13.356522-33.391304-13.356521s-22.26087 4.452174-31.165218 13.356521c-17.808696 17.808696-17.808696 46.747826 0 63.443479L311.652174 250.434783H185.878261c-24.486957 0-44.521739 20.034783-44.521739 44.521739s20.034783 44.521739 44.521739 44.521739h233.73913c12.243478 0 23.373913-5.565217 31.165218-14.469565zM988.382609 860.382609c-17.808696 17.808696-44.521739 17.808696-62.330435 0L645.565217 578.782609V705.669565c0 24.486957-20.034783 45.634783-45.634782 45.634783-24.486957 0-44.521739-20.034783-44.521739-44.521739v-233.739131c0-12.243478 4.452174-22.26087 13.356521-31.165217 8.904348-8.904348 20.034783-12.243478 31.165218-12.243478h233.73913c24.486957 0 44.521739 20.034783 44.521739 44.521739s-20.034783 44.521739-44.521739 44.521739H706.782609L988.382609 798.052174c17.808696 17.808696 17.808696 45.634783 0 62.330435z"  horiz-adv-x="1024" />

    
    <glyph glyph-name="crop" unicode="&#58938;" d="M988.382609 786.921739c17.808696 16.695652 17.808696 45.634783 0 63.443478-16.695652 17.808696-45.634783 16.695652-63.443479 0L792.486957 717.913043H233.73913V799.165217c0 24.486957-20.034783 44.521739-44.521739 44.52174s-44.521739-20.034783-44.521739-44.52174V717.913043H66.782609c-24.486957 0-44.521739-20.034783-44.521739-44.521739s20.034783-44.521739 44.521739-44.521739h77.913043v-555.408695c0-1.113043 1.113043-2.226087 1.113044-3.339131 0-2.226087 1.113043-3.33913 1.113043-5.565217 0-1.113043 1.113043-2.226087 1.113044-4.452174 0-1.113043 1.113043-3.33913 1.113043-4.452174 1.113043-1.113043 1.113043-2.226087 2.226087-4.452174 1.113043-1.113043 1.113043-2.226087 2.226087-3.33913 1.113043-1.113043 2.226087-3.33913 3.33913-4.452174l2.226087-2.226087c2.226087-2.226087 4.452174-3.33913 6.678261-5.565218 1.113043 0 1.113043-1.113043 2.226087-1.113043l6.678261-3.339131c1.113043 0 2.226087-1.113043 4.452174-1.113043 1.113043 0 3.33913-1.113043 4.452174-1.113044 3.33913-1.113043 5.565217-1.113043 8.904348-1.113043H768v-77.913044c0-24.486957 20.034783-44.521739 44.521739-44.521739s44.521739 20.034783 44.521739 44.521739v77.913044h77.913044c24.486957 0 44.521739 20.034783 44.521739 44.521739s-20.034783 44.521739-44.521739 44.521739h-77.913044V657.808696L988.382609 786.921739zM701.217391 628.869565L233.73913 178.086957V628.869565h467.478261z m66.782609-512H300.521739l467.478261 454.121739V116.869565z"  horiz-adv-x="1024" />

    
    <glyph glyph-name="cross" unicode="&#58939;" d="M786.921739 180.313043c20.034783-20.034783 20.034783-51.2 0-71.234782-10.017391-10.017391-22.26087-14.469565-35.617391-14.469565-13.356522 0-25.6 4.452174-35.617391 14.469565L512 312.765217 308.313043 109.078261c-10.017391-10.017391-22.26087-14.469565-35.617391-14.469565s-25.6 4.452174-35.617391 14.469565c-20.034783 20.034783-20.034783 51.2 0 71.234782L440.765217 384 237.078261 587.686957c-20.034783 20.034783-20.034783 51.2 0 71.234782 20.034783 20.034783 51.2 20.034783 71.234782 0L512 455.234783l203.686957 203.686956c20.034783 20.034783 51.2 20.034783 71.234782 0 20.034783-20.034783 20.034783-51.2 0-71.234782L583.234783 384l203.686956-203.686957z"  horiz-adv-x="1024" />

    
    <glyph glyph-name="conversation" unicode="&#58940;" d="M979.478261 628.869565H545.391304v102.4c0 18.921739-24.486957 42.295652-42.295652 42.295652H33.391304c-18.921739 0-33.391304-23.373913-33.391304-42.295652v-284.93913C0 428.521739 15.582609 406.26087 33.391304 406.26087h67.895653l89.043478-96.834783c6.678261-7.791304 15.582609-10.017391 25.6-10.017391 4.452174 0 5.565217 1.113043 10.017391 3.33913 13.356522 4.452174 20.034783 17.808696 20.034783 32.278261V406.26087h66.782608v-207.026087c0-24.486957 25.6-48.973913 50.086957-48.973913H667.826087v-135.791305c0-17.808696 8.904348-34.504348 26.713043-41.182608 5.565217-2.226087 10.017391-3.33913 15.582609-3.339131 12.243478 0 23.373913 2.226087 32.278261 11.130435L908.243478 150.26087H979.478261c24.486957 0 44.521739 24.486957 44.521739 48.973913V574.330435c0 24.486957-20.034783 54.53913-44.521739 54.53913zM215.930435 473.043478c-18.921739 0-37.843478-7.791304-37.843478-26.713043v-22.26087l-37.843479 41.182609c-6.678261 7.791304-14.469565 7.791304-23.373913 7.791304H66.782609V706.782609h400.695652v-77.913044h-105.739131c-24.486957 0-50.086957-30.052174-50.086956-54.53913V473.043478h-95.721739zM934.956522 239.304348h-45.634783c-12.243478 0-22.26087-2.226087-31.165217-11.130435L756.869565 125.773913v74.573913c0 24.486957-23.373913 40.069565-47.860869 40.069565H400.695652V539.826087h534.26087v-300.521739zM465.252174 439.652174c0 18.921739 15.582609 33.391304 33.391304 33.391304h212.591305c18.921739 0 33.391304-14.469565 33.391304-33.391304s-15.582609-33.391304-33.391304-33.391304H498.643478c-18.921739 0-33.391304 14.469565-33.391304 33.391304z m323.895652-23.373913c-6.678261 6.678261-10.017391 14.469565-10.017391 23.373913s3.33913 17.808696 10.017391 23.373913c12.243478 12.243478 35.617391 12.243478 47.86087 0 6.678261-6.678261 10.017391-14.469565 10.017391-23.373913s-3.33913-17.808696-10.017391-23.373913c-6.678261-6.678261-14.469565-10.017391-23.373913-10.017391-10.017391 1.113043-18.921739 4.452174-24.486957 10.017391z"  horiz-adv-x="1024" />

    
    <glyph glyph-name="contract" unicode="&#58941;" d="M983.930435-30.052174c17.808696-17.808696 17.808696-45.634783 0-63.443478-8.904348-8.904348-20.034783-13.356522-31.165218-13.356522-11.130435 0-23.373913 4.452174-32.27826 13.356522L678.956522 148.034783v-114.643479c0-24.486957-20.034783-44.521739-44.521739-44.521739s-44.521739 20.034783-44.52174 44.521739v222.608696c0 12.243478 5.565217 23.373913 13.356522 31.165217 8.904348 7.791304 20.034783 13.356522 32.278261 13.356522h222.608696c24.486957 0 44.521739-20.034783 44.521739-44.521739s-20.034783-44.521739-44.521739-44.521739H743.513043l240.417392-241.530435zM633.321739 461.913043h222.608696c24.486957 0 44.521739 20.034783 44.521739 44.52174s-20.034783 44.521739-44.521739 44.521739H741.286957L988.382609 798.052174c17.808696 17.808696 17.808696 45.634783 0 62.330435-17.808696 17.808696-45.634783 16.695652-62.330435 0L678.956522 613.286957V727.930435c0 24.486957-20.034783 45.634783-44.521739 45.634782s-44.521739-20.034783-44.52174-44.521739v-222.608695c0-12.243478 4.452174-22.26087 13.356522-31.165218 7.791304-8.904348 18.921739-13.356522 30.052174-13.356522z m-244.869565 308.313044c-24.486957 0-43.408696-20.034783-43.408696-44.521739v-114.643478L99.06087 857.043478C81.252174 873.73913 53.426087 873.73913 35.617391 857.043478c-17.808696-17.808696-17.808696-44.521739 0-61.217391l244.869566-243.756522H166.956522v-1.113043c-22.26087 0-45.634783-21.147826-45.634783-45.634783 0-24.486957 20.034783-44.521739 44.521739-44.521739h222.608696c11.130435 0 22.26087 4.452174 31.165217 13.356522 8.904348 8.904348 12.243478 20.034783 12.243479 31.165217v222.608696c1.113043 22.26087-18.921739 42.295652-43.408696 42.295652zM386.226087 306.086957h-222.608696c-24.486957 0-44.521739-20.034783-44.521739-44.52174s20.034783-44.521739 44.521739-44.521739H278.26087L35.617391-27.826087c-17.808696-17.808696-17.808696-46.747826 0-63.443478 8.904348-8.904348 20.034783-13.356522 32.278261-13.356522 11.130435 0 24.486957 4.452174 33.391305 13.356522L345.043478 150.26087v-114.643479c0-24.486957 17.808696-41.182609 42.295652-41.182608h-1.113043c24.486957 0 44.521739 17.808696 44.521739 42.295652V258.226087c0 12.243478-4.452174 24.486957-13.356522 33.391304-7.791304 8.904348-18.921739 14.469565-31.165217 14.469566z"  horiz-adv-x="1024" />

    
    <glyph glyph-name="crosshair" unicode="&#58942;" d="M513.113043 896c-1.113043 0-1.113043 0 0 0-1.113043 0-1.113043 0 0 0C229.286957 896 0 666.713043 0 384c0-281.6 229.286957-512 510.886957-512 282.713043 0 512 229.286957 512 512C1024 665.6 794.713043 896 513.113043 896zM556.521739-36.730435V77.913043c0 24.486957-20.034783 44.521739-44.521739 44.52174s-44.521739-20.034783-44.521739-44.52174v-114.643478C267.130435-15.582609 112.417391 142.469565 91.269565 339.478261h114.643478c24.486957 0 44.521739 20.034783 44.52174 44.521739s-20.034783 44.521739-44.52174 44.521739H91.269565C112.417391 626.643478 267.130435 783.582609 467.478261 804.730435v-114.643478c0-24.486957 20.034783-44.521739 44.521739-44.52174s44.521739 20.034783 44.521739 44.52174V804.730435c200.347826-21.147826 355.06087-178.086957 376.208696-376.208696H818.086957c-24.486957 0-44.521739-20.034783-44.52174-44.521739s20.034783-44.521739 44.52174-44.521739h114.643478C911.582609 141.356522 756.869565-15.582609 556.521739-36.730435z"  horiz-adv-x="1024" />

    
    <glyph glyph-name="device-desktop" unicode="&#58943;" d="M939.408696 818.086957H84.591304C37.843478 818.086957 0 780.243478 0 733.495652v-493.078261C0 193.669565 37.843478 150.26087 84.591304 150.26087H367.304348v-45.634783l-84.591305-67.895652c-15.582609-12.243478-22.26087-35.617391-15.582608-53.426087 6.678261-17.808696 23.373913-33.391304 42.295652-33.391305h400.695652c18.921739 0 36.730435 15.582609 43.408696 33.391305 6.678261 17.808696 1.113043 40.069565-13.356522 52.313043L656.695652 104.626087V150.26087h282.713044c46.747826 0 84.591304 43.408696 84.591304 90.156521V733.495652c0 46.747826-37.843478 84.591304-84.591304 84.591305zM592.13913 52.313043l26.713044-24.486956H400.695652l28.939131 25.6c8.904348 7.791304 15.582609 21.147826 15.582608 33.391304V150.26087h133.565218v-64.556522c0-11.130435 4.452174-25.6 13.356521-33.391305zM934.956522 239.304348H89.043478V729.043478h845.913044v-489.73913z"  horiz-adv-x="1024" />

    
    <glyph glyph-name="device-mobile" unicode="&#58945;" d="M587.686957 50.086957c0-18.921739-14.469565-33.391304-33.391305-33.391305h-85.704348c-18.921739 0-33.391304 14.469565-33.391304 33.391305s14.469565 33.391304 33.391304 33.391304h85.704348c18.921739 0 33.391304-14.469565 33.391305-33.391304zM801.391304 811.408696v-854.817392c0-46.747826-37.843478-84.591304-84.591304-84.591304H307.2c-46.747826 0-84.591304 37.843478-84.591304 84.591304V811.408696C222.608696 858.156522 260.452174 896 307.2 896h409.6C763.547826 896 801.391304 858.156522 801.391304 811.408696zM311.652174 806.956522v-589.913044h400.695652V806.956522H311.652174z m400.695652-845.913044V150.26087H311.652174v-189.217392h400.695652z"  horiz-adv-x="1024" />

    
    <glyph glyph-name="direction" unicode="&#58946;" d="M555.408696-83.478261c-2.226087 0-4.452174 0-6.678261 1.113044-20.034783 3.33913-35.617391 18.921739-36.730435 38.956521l-38.956522 387.339131-388.452174 38.956522c-20.034783 2.226087-36.730435 17.808696-38.956521 36.730434-3.33913 20.034783 7.791304 38.956522 25.6 47.86087l845.913043 379.547826c16.695652 7.791304 36.730435 4.452174 50.086957-8.904348 13.356522-13.356522 16.695652-33.391304 8.904347-50.086956l-379.547826-845.913044c-7.791304-15.582609-24.486957-25.6-41.182608-25.6zM259.33913 454.121739L516.452174 428.521739c21.147826-2.226087 37.843478-18.921739 40.069565-40.069565l26.713044-257.113044L845.913043 717.913043 259.33913 454.121739z"  horiz-adv-x="1024" />

    
    <glyph glyph-name="document-edit" unicode="&#58949;" d="M958.330435 793.6L879.304348 874.852174c-6.678261 6.678261-15.582609 10.017391-24.486957 10.017391-8.904348 0-17.808696-3.33913-23.373913-10.017391L365.078261 401.808696c-3.33913-3.33913-5.565217-6.678261-7.791304-11.130435l-52.313044-132.452174c-4.452174-12.243478-2.226087-26.713043 7.791304-35.617391 6.678261-6.678261 14.469565-10.017391 23.373913-10.017392 4.452174 0 7.791304 1.113043 12.243479 2.226087l131.33913 52.313044c4.452174 2.226087 7.791304 4.452174 11.130435 7.791304L957.217391 747.965217c14.469565 12.243478 14.469565 33.391304 1.113044 45.634783z m-508.66087-467.478261l-53.426087-21.147826 21.147826 54.53913L854.817391 803.617391l33.391305-33.391304-438.539131-444.104348zM790.26087 366.191304V-83.478261c0-24.486957-22.26087-44.521739-46.747827-44.521739H111.304348c-24.486957 0-44.521739 20.034783-44.521739 44.521739V764.66087C66.782609 789.147826 86.817391 806.956522 111.304348 806.956522h463.026087c24.486957 0 44.521739-20.034783 44.521739-44.521739s-20.034783-44.521739-44.521739-44.52174H155.826087v-756.869565h545.391304V366.191304c0 24.486957 20.034783 44.521739 44.521739 44.521739s44.521739-20.034783 44.52174-44.521739z"  horiz-adv-x="1024" />

    
    <glyph glyph-name="document-new" unicode="&#58950;" d="M877.078261 612.173913L631.095652 860.382609c-8.904348 8.904348-20.034783 13.356522-32.278261 13.356521H178.086957c-24.486957 0-44.521739-20.034783-44.52174-44.521739v-890.434782c0-24.486957 20.034783-44.521739 44.52174-44.521739h667.826086c24.486957 0 44.521739 20.034783 44.52174 44.521739V581.008696c0 12.243478-4.452174 23.373913-13.356522 31.165217zM801.391304 562.086957H578.782609V784.695652h2.226087L801.391304 562.086957zM222.608696-16.695652V784.695652h267.130434v-266.017391c0-24.486957 18.921739-45.634783 43.408696-45.634783H801.391304v-489.73913H222.608696z"  horiz-adv-x="1024" />

    
    <glyph glyph-name="device-tablet" unicode="&#58951;" d="M574.330435 38.956522c0-18.921739-14.469565-33.391304-33.391305-33.391305h-57.87826c-18.921739 0-33.391304 14.469565-33.391305 33.391305s14.469565 33.391304 33.391305 33.391304h57.87826c18.921739 0 33.391304-14.469565 33.391305-33.391304zM923.826087 811.408696v-854.817392c0-46.747826-37.843478-84.591304-84.591304-84.591304H184.765217C138.017391-128 100.173913-90.156522 100.173913-43.408696V811.408696C100.173913 858.156522 138.017391 896 184.765217 896h654.469566C885.982609 896 923.826087 858.156522 923.826087 811.408696zM189.217391 806.956522v-612.173913h645.565218V806.956522H189.217391z m645.565218-845.913044V128H189.217391v-166.956522h645.565218z"  horiz-adv-x="1024" />

    
    <glyph glyph-name="document" unicode="&#58952;" d="M845.913043 873.73913H178.086957c-24.486957 0-44.521739-20.034783-44.52174-44.521739v-890.434782c0-24.486957 20.034783-44.521739 44.52174-44.521739h667.826086c24.486957 0 44.521739 20.034783 44.52174 44.521739V829.217391c0 24.486957-20.034783 44.521739-44.52174 44.521739z m-44.521739-890.434782H222.608696V784.695652h578.782608v-801.391304zM328.347826 278.26087c0 21.147826 17.808696 38.956522 38.956522 38.956521h131.33913c21.147826 0 38.956522-17.808696 38.956522-38.956521S519.791304 239.304348 498.643478 239.304348H367.304348c-22.26087 0-38.956522 17.808696-38.956522 38.956522z m5.565217 178.086956c0 21.147826 17.808696 38.956522 38.956522 38.956522h264.904348c21.147826 0 38.956522-17.808696 38.956522-38.956522S660.034783 417.391304 637.773913 417.391304H372.869565c-21.147826 0-38.956522 17.808696-38.956522 38.956522z m0 166.956522c0 21.147826 17.808696 38.956522 38.956522 38.956522h264.904348c21.147826 0 38.956522-17.808696 38.956522-38.956522S660.034783 584.347826 637.773913 584.347826H372.869565c-21.147826 0-38.956522 17.808696-38.956522 38.956522z m330.573914-320.556522c6.678261-6.678261 11.130435-16.695652 11.130434-27.826087 0-10.017391-4.452174-20.034783-11.130434-27.826087s-17.808696-11.130435-27.826087-11.130435-20.034783 4.452174-27.826087 11.130435-11.130435 16.695652-11.130435 27.826087c0 10.017391 4.452174 20.034783 11.130435 27.826087 14.469565 14.469565 41.182609 14.469565 55.652174 0z"  horiz-adv-x="1024" />

    
    <glyph glyph-name="dot" unicode="&#58954;" d="M512 306.086957c-20.034783 0-41.182609 8.904348-55.652174 23.373913-14.469565 14.469565-22.26087 34.504348-22.260869 54.53913 0 20.034783 8.904348 40.069565 22.260869 55.652174 14.469565 14.469565 34.504348 22.26087 55.652174 22.260869 20.034783 0 40.069565-8.904348 54.53913-22.260869 14.469565-14.469565 23.373913-34.504348 23.373913-55.652174 0-20.034783-8.904348-40.069565-23.373913-54.53913-14.469565-14.469565-34.504348-23.373913-54.53913-23.373913z"  horiz-adv-x="1024" />

    
    <glyph glyph-name="dots-" unicode="&#58955;" d="M378.434783 306.086957c-20.034783 0-41.182609 8.904348-55.652174 23.373913-14.469565 14.469565-22.26087 34.504348-22.26087 54.53913 0 20.034783 8.904348 40.069565 22.26087 55.652174 14.469565 14.469565 34.504348 22.26087 55.652174 22.260869 20.034783 0 40.069565-8.904348 54.53913-22.260869 14.469565-14.469565 23.373913-34.504348 23.373913-55.652174 0-20.034783-8.904348-40.069565-23.373913-54.53913-14.469565-14.469565-34.504348-23.373913-54.53913-23.373913z m321.669565 23.373913c14.469565 14.469565 23.373913 34.504348 23.373913 54.53913 0 20.034783-8.904348 40.069565-23.373913 55.652174-14.469565 14.469565-34.504348 22.26087-54.539131 22.260869-20.034783 0-41.182609-8.904348-55.652174-22.260869-14.469565-14.469565-22.26087-34.504348-22.260869-55.652174 0-20.034783 8.904348-40.069565 22.260869-54.53913 14.469565-14.469565 34.504348-23.373913 55.652174-23.373913 20.034783 0 40.069565 8.904348 54.539131 23.373913z"  horiz-adv-x="1024" />

    
    <glyph glyph-name="download" unicode="&#58956;" d="M990.608696 241.530435V-61.217391c0-31.165217-24.486957-55.652174-55.652174-55.652174H89.043478c-31.165217 0-55.652174 24.486957-55.652174 55.652174V241.530435c0 31.165217 24.486957 55.652174 55.652174 55.652174s55.652174-24.486957 55.652174-55.652174V-5.565217h734.608696V241.530435c0 31.165217 24.486957 55.652174 55.652174 55.652174s55.652174-24.486957 55.652174-55.652174zM471.930435 172.521739c10.017391-11.130435 24.486957-16.695652 40.069565-16.695652s28.93913 5.565217 40.069565 16.695652l221.495652 227.06087c21.147826 22.26087 21.147826 56.765217-1.113043 79.026087-22.26087 21.147826-56.765217 21.147826-79.026087-1.113044L567.652174 347.269565V829.217391c0 31.165217-24.486957 55.652174-55.652174 55.652174s-55.652174-24.486957-55.652174-55.652174v-481.947826L329.46087 476.382609c-21.147826 22.26087-56.765217 22.26087-79.026087 1.113043s-22.26087-56.765217-1.113044-79.026087l222.608696-225.947826z"  horiz-adv-x="1024" />

    
    <glyph glyph-name="dots-1" unicode="&#58957;" d="M233.73913 306.086957c-20.034783 0-41.182609 8.904348-55.652173 23.373913-14.469565 14.469565-22.26087 34.504348-22.26087 54.53913 0 20.034783 8.904348 40.069565 22.26087 55.652174 14.469565 14.469565 34.504348 22.26087 55.652173 22.260869 20.034783 0 40.069565-8.904348 54.539131-22.260869 14.469565-14.469565 23.373913-34.504348 23.373913-55.652174 0-20.034783-8.904348-40.069565-23.373913-54.53913-14.469565-14.469565-34.504348-23.373913-54.539131-23.373913z m332.8 23.373913c14.469565 14.469565 23.373913 34.504348 23.373913 54.53913 0 20.034783-8.904348 40.069565-23.373913 55.652174-14.469565 14.469565-34.504348 22.26087-54.53913 22.260869-20.034783 0-41.182609-8.904348-55.652174-22.260869-14.469565-14.469565-22.26087-34.504348-22.260869-55.652174 0-20.034783 8.904348-40.069565 22.260869-54.53913 14.469565-14.469565 34.504348-23.373913 55.652174-23.373913 20.034783 0 40.069565 8.904348 54.53913 23.373913z m278.26087 0c14.469565 14.469565 23.373913 34.504348 23.373913 54.53913 0 20.034783-8.904348 40.069565-23.373913 55.652174-14.469565 14.469565-34.504348 22.26087-54.53913 22.260869-20.034783 0-41.182609-8.904348-55.652174-22.260869-14.469565-14.469565-22.26087-34.504348-22.26087-55.652174 0-20.034783 8.904348-40.069565 22.26087-54.53913 14.469565-14.469565 34.504348-23.373913 55.652174-23.373913 20.034783 0 40.069565 8.904348 54.53913 23.373913z"  horiz-adv-x="1024" />

    
    <glyph glyph-name="duplicate" unicode="&#58958;" d="M979.478261 134.678261H307.2c-24.486957 0-44.521739 20.034783-44.521739 44.521739V851.478261c0 24.486957 20.034783 44.521739 44.521739 44.521739H979.478261c24.486957 0 44.521739-20.034783 44.521739-44.521739v-671.165218c0-25.6-20.034783-45.634783-44.521739-45.634782z m-627.756522 90.156522h582.121739V805.843478H351.721739v-581.008695z m387.339131-299.408696V43.408696c0 18.921739-15.582609 33.391304-33.391305 33.391304s-33.391304-15.582609-33.391304-33.391304V-61.217391H67.895652V543.165217h103.513044c18.921739 0 33.391304 15.582609 33.391304 33.391305s-15.582609 33.391304-33.391304 33.391304H53.426087c-28.93913 0-53.426087-23.373913-53.426087-53.426087v-633.321739C0-104.626087 23.373913-128 53.426087-128h633.321739c28.93913 0 52.313043 23.373913 52.313044 53.426087z"  horiz-adv-x="1024" />

    
    <glyph glyph-name="enter" unicode="&#58959;" d="M990.608696 751.304348v-734.608696c0-24.486957-20.034783-44.521739-44.521739-44.521739H366.191304c-24.486957 0-43.408696 20.034783-43.408695 44.521739V220.382609c0 24.486957 20.034783 44.521739 44.521739 44.521739s44.521739-20.034783 44.521739-44.521739V61.217391h489.73913V706.782609H411.826087v-159.165218c0-24.486957-20.034783-44.521739-44.521739-44.521739s-44.521739 20.034783-44.521739 44.521739V751.304348c0 24.486957 18.921739 44.521739 43.408695 44.521739H946.086957c24.486957 0 44.521739-20.034783 44.521739-44.521739zM517.565217 240.417391c-17.808696-17.808696-16.695652-45.634783 0-63.443478 8.904348-8.904348 20.034783-13.356522 31.165218-13.356522 11.130435 0 23.373913 4.452174 31.165217 13.356522l174.747826 175.86087c16.695652 17.808696 16.695652 45.634783 0 62.330434l-173.634782 178.086957c-17.808696 17.808696-45.634783 17.808696-63.443479 0-17.808696-17.808696-17.808696-45.634783 0-63.443478l99.06087-100.173913L77.913043 428.521739c-24.486957 0-44.521739-20.034783-44.521739-44.521739s20.034783-44.521739 44.521739-44.521739l538.713044 1.113043-99.06087-100.173913z"  horiz-adv-x="1024" />

    
    <glyph glyph-name="exit" unicode="&#58960;" d="M667.826087 220.382609V16.695652c0-24.486957-17.808696-44.521739-42.295652-44.521739H44.521739c-24.486957 0-44.521739 20.034783-44.521739 44.521739V751.304348c0 24.486957 20.034783 44.521739 44.521739 44.521739h581.008696c24.486957 0 42.295652-20.034783 42.295652-44.521739v-203.686957c0-24.486957-20.034783-44.521739-44.521739-44.521739s-44.521739 20.034783-44.521739 44.521739V706.782609H89.043478v-645.565218h489.739131V220.382609c0 24.486957 20.034783 44.521739 44.521739 44.521739s44.521739-20.034783 44.521739-44.521739zM1010.643478 417.391304L837.008696 593.252174c-17.808696 17.808696-45.634783 17.808696-63.443479 0-17.808696-17.808696-17.808696-45.634783 0-63.443478l99.06087-100.173913-539.826087-1.113044c-24.486957 0-44.521739-20.034783-44.521739-44.521739s20.034783-44.521739 44.521739-44.521739l539.826087 1.113043-99.06087-100.173913c-17.808696-17.808696-16.695652-45.634783 0-63.443478 8.904348-8.904348 20.034783-13.356522 31.165218-13.356522 11.130435 0 23.373913 4.452174 31.165217 13.356522l174.747826 175.86087c17.808696 18.921739 17.808696 46.747826 0 64.556521z"  horiz-adv-x="1024" />

    
    <glyph glyph-name="expand-" unicode="&#58961;" d="M1001.73913 829.217391v-233.73913c0-24.486957-20.034783-44.521739-44.521739-44.521739s-44.521739 20.034783-44.521739 44.521739V721.252174L631.095652 440.765217c-8.904348-8.904348-20.034783-13.356522-31.165217-13.356521-11.130435 0-22.26087 4.452174-31.165218 13.356521-17.808696 17.808696-17.808696 45.634783 0 63.443479L849.252174 784.695652H723.478261c-24.486957 0-44.521739 20.034783-44.521739 44.521739s20.034783 44.521739 44.521739 44.521739h233.73913c12.243478 0 23.373913-4.452174 31.165218-13.356521 8.904348-7.791304 13.356522-18.921739 13.356521-31.165218zM388.452174 322.782609L111.304348 46.747826V172.521739c0 24.486957-20.034783 44.521739-44.521739 44.521739s-44.521739-20.034783-44.521739-44.521739v-233.73913c0-12.243478 4.452174-23.373913 13.356521-31.165218 7.791304-8.904348 18.921739-13.356522 31.165218-13.356521h233.73913c24.486957 0 44.521739 20.034783 44.521739 44.521739s-20.034783 44.521739-44.521739 44.521739H174.747826l277.147826 277.147826c17.808696 17.808696 17.808696 45.634783 0 63.443478-17.808696 16.695652-46.747826 16.695652-63.443478-1.113043z"  horiz-adv-x="1024" />

    
    <glyph glyph-name="expand" unicode="&#58962;" d="M1001.73913 829.217391v-222.608695c0-24.486957-20.034783-44.521739-44.521739-44.521739s-44.521739 20.034783-44.521739 44.521739V721.252174L654.469565 463.026087c-8.904348-8.904348-20.034783-13.356522-31.165217-13.356522-11.130435 0-22.26087 4.452174-31.165218 13.356522-17.808696 17.808696-17.808696 45.634783 0 63.443478L849.252174 784.695652H734.608696c-24.486957 0-44.521739 20.034783-44.521739 44.521739s20.034783 44.521739 44.521739 44.521739h222.608695c12.243478 0 23.373913-4.452174 31.165218-13.356521 8.904348-7.791304 13.356522-18.921739 13.356521-31.165218z m-44.521739-623.304348c-24.486957 0-44.521739-20.034783-44.521739-44.521739v-114.643478L658.921739 298.295652c-17.808696 17.808696-46.747826 17.808696-64.556522 0-17.808696-17.808696-17.808696-45.634783-1.113043-63.443478L844.8-16.695652H730.156522c-24.486957 0-44.521739-20.034783-44.521739-44.521739s20.034783-44.521739 44.521739-44.521739h222.608695c12.243478 0 25.6 4.452174 33.391305 13.356521C995.06087-83.478261 1001.73913-72.347826 1001.73913-61.217391V161.391304c0 24.486957-20.034783 44.521739-44.521739 44.521739z m-592.13913 94.608696L111.304348 46.747826V161.391304c0 24.486957-20.034783 44.521739-44.521739 44.521739s-44.521739-20.034783-44.521739-44.521739v-222.608695c0-12.243478 4.452174-23.373913 13.356521-31.165218C44.521739-101.286957 55.652174-105.73913 67.895652-105.73913h222.608696c24.486957 0 44.521739 20.034783 44.521739 44.521739s-20.034783 44.521739-44.521739 44.521739H174.747826l253.773913 253.773913c17.808696 17.808696 16.695652 45.634783 0 63.443478-16.695652 17.808696-45.634783 17.808696-63.443478 0zM174.747826 780.243478H289.391304c24.486957 0 44.521739 20.034783 44.521739 44.521739s-20.034783 44.521739-44.521739 44.52174H66.782609c-12.243478 0-23.373913-4.452174-31.165218-13.356522C26.713043 848.13913 22.26087 837.008696 22.26087 824.765217v-222.608695c0-24.486957 20.034783-44.521739 44.521739-44.521739s44.521739 20.034783 44.521739 44.521739V717.913043l257.113043-257.113043c8.904348-8.904348 20.034783-13.356522 31.165218-13.356522 11.130435 0 22.26087 4.452174 31.165217 13.356522 17.808696 17.808696 17.808696 45.634783 0 63.443478l-256 256z"  horiz-adv-x="1024" />

    
    <glyph glyph-name="export" unicode="&#58964;" d="M812.521739 44.521739v-55.652174c0-24.486957-21.147826-38.956522-45.634782-38.956522H40.069565C15.582609-50.086957 0-36.730435 0-11.130435V538.713043c0 24.486957 15.582609 46.747826 40.069565 46.747827h130.226087c24.486957 0 44.521739-20.034783 44.521739-44.52174s-20.034783-44.521739-44.521739-44.521739H89.043478V38.956522h634.434783v5.565217c0 24.486957 20.034783 44.521739 44.521739 44.521739s44.521739-20.034783 44.521739-44.521739z m198.121739 415.165218L734.608696 178.086957c-13.356522-13.356522-32.278261-16.695652-48.973913-10.017392-17.808696 7.791304-28.93913 23.373913-28.939131 42.295652V331.686957c-89.043478 2.226087-302.747826-6.678261-380.660869-143.582609-7.791304-14.469565-23.373913-23.373913-38.956522-23.373913-3.33913 0-7.791304 0-11.130435 1.113043-20.034783 5.565217-33.391304 23.373913-33.391304 43.408696 0 6.678261 0 179.2 129.113043 307.2C402.921739 599.930435 512 644.452174 656.695652 652.243478V773.565217c0 17.808696 11.130435 34.504348 27.826087 41.182609 17.808696 6.678261 36.730435 3.33913 50.086957-10.017391l277.147826-281.6c16.695652-17.808696 16.695652-45.634783-1.113044-63.443478z m-95.721739 32.27826L745.73913 663.373913v-54.53913c0-24.486957-18.921739-44.521739-44.521739-44.52174-138.017391 0-243.756522-36.730435-316.104348-110.191304-33.391304-33.391304-55.652174-70.121739-70.121739-105.73913 104.626087 62.330435 237.078261 73.46087 318.330435 73.460869 42.295652 0 70.121739-3.33913 73.46087-3.33913 22.26087-2.226087 38.956522-22.26087 38.956521-44.521739v-54.539131l169.182609 172.521739z"  horiz-adv-x="1024" />

    
    <glyph glyph-name="feed" unicode="&#58965;" d="M686.747826-18.921739c-1.113043-33.391304-28.93913-58.991304-61.217391-58.991304H623.304348c-33.391304 1.113043-60.104348 30.052174-58.991305 63.443478 6.678261 158.052174-31.165217 276.034783-112.417391 352.834782C322.782609 459.686957 120.208696 439.652174 117.982609 439.652174c-33.391304-3.33913-63.443478 21.147826-67.895652 54.53913-3.33913 33.391304 20.034783 63.443478 54.53913 67.895653 10.017391 1.113043 259.33913 26.713043 430.747826-132.452174 109.078261-102.4 159.165217-253.773913 151.373913-448.556522zM205.913043 218.156522c-37.843478 0-75.686957-15.582609-102.4-42.295652-26.713043-26.713043-42.295652-64.556522-42.295652-102.4s15.582609-75.686957 42.295652-102.4c26.713043-26.713043 64.556522-42.295652 102.4-42.295653 37.843478 0 75.686957 15.582609 102.4 42.295653 26.713043 26.713043 42.295652 64.556522 42.295653 102.4s-15.582609 75.686957-42.295653 102.4c-26.713043 26.713043-64.556522 42.295652-102.4 42.295652z m540.939131 430.747826C491.965217 885.982609 120.208696 843.686957 103.513043 842.573913c-33.391304-4.452174-57.878261-34.504348-53.426086-67.895652 4.452174-33.391304 34.504348-57.878261 67.895652-53.426087 3.33913 0 331.686957 36.730435 545.391304-161.391304 134.678261-124.66087 197.008696-317.217391 185.878261-573.217392-1.113043-33.391304 24.486957-62.330435 58.991304-63.443478h2.226087c32.278261 0 60.104348 25.6 61.217392 58.991304 13.356522 291.617391-62.330435 516.452174-224.834783 666.713044z"  horiz-adv-x="1024" />

    
    <glyph glyph-name="flag" unicode="&#58966;" d="M965.628664 894.888165c-21.124864 4.44734-42.249729-6.67101-50.032573-26.684039C903.365907 840.408252 785.511401 718.106406 684.334419 713.659066c-57.815418-2.22367-111.183496 37.802389-167.887079 80.052117C443.066232 847.079262 361.90228 907.11835 257.389794 887.10532 102.844734 858.197611 30.575461 719.218241 27.239957 712.547231c-4.44734-8.89468-5.559175-20.013029-3.335505-30.019544l44.473398-199.018458L198.462541-93.533116c4.44734-21.124864 23.348534-34.466884 43.361563-34.466884 3.335505 0 6.67101 0 10.006515 1.111835 24.460369 5.559175 38.914224 28.907709 33.355049 53.368078l-75.604778 336.885994c20.013029 31.131379 76.716612 107.847991 165.66341 127.86102 53.368078 12.230185 95.617807-2.22367 144.538545-17.789359 54.479913-17.789359 116.742671-38.914224 196.794788-21.124864C884.464712 391.226927 997.871878 591.35722 1001.207383 851.526602 1001.207383 872.651466 986.753529 890.440825 965.628664 894.888165z m-269.06406-455.852334c-55.591748-12.230185-98.953312 2.22367-148.985885 18.901194-54.479913 17.789359-115.630836 38.914224-192.347449 21.124864C279.626493 462.384365 222.92291 417.910966 184.008686 375.661238l-4.44734 20.013029-65.598262 289.07709c18.901194 28.907709 71.157438 97.841477 158.992399 114.519001 66.710098 12.230185 123.413681-28.907709 189.011944-77.828447 63.374593-46.697068 136.7557-100.065147 224.590662-96.729642 74.492942 3.335505 151.209555 46.697068 211.248643 95.617807-25.572204-133.420195-91.170467-255.722041-201.242128-281.294245z"  horiz-adv-x="1024" />

    
    <glyph glyph-name="folder-open" unicode="&#58967;" d="M1013.99129 466.365217c-8.904348 11.130435-21.147826 17.808696-34.504347 17.808696h-55.652174V605.495652c0 21.147826-15.582609 34.504348-36.730435 34.504348h-389.565217l-50.086957 82.365217c-6.678261 11.130435-20.034783 17.808696-33.391304 17.808696H126.895638C105.747812 740.173913 89.05216 727.930435 89.05216 706.782609v-222.608696H44.530421c-13.356522 0-26.713043-6.678261-34.504348-16.695652s-12.243478-24.486957-8.904348-37.843478l82.365218-377.32174c4.452174-20.034783 22.26087-35.617391 43.408695-35.617391h760.208696c20.034783 0 37.843478 14.469565 43.408696 33.391305l92.382608 378.434782c3.33913 13.356522 0 26.713043-8.904348 37.843478zM166.965203 662.26087h224.834783l50.086957-82.365218c6.678261-11.130435 20.034783-17.808696 33.391304-17.808695H845.921725v-77.913044H166.965203V662.26087z m684.52174-556.52174H162.51303L100.182595 395.130435h822.53913l-71.234782-289.391305z"  horiz-adv-x="1024" />

    
    <glyph glyph-name="folder" unicode="&#58969;" d="M890.434783 640H506.434783l-48.973913 79.026087c-7.791304 13.356522-22.26087 21.147826-37.843479 21.147826H133.565217c-24.486957 0-44.521739-20.034783-44.521739-44.521739v-623.304348c0-24.486957 20.034783-44.521739 44.521739-44.521739h756.869566c24.486957 0 44.521739 20.034783 44.521739 44.521739V594.365217c0 24.486957-20.034783 45.634783-44.521739 45.634783z m-44.52174-523.130435H178.086957V651.130435h215.930434l48.973913-79.026087c7.791304-13.356522 22.26087-21.147826 37.843479-21.147826H845.913043v-434.086957z"  horiz-adv-x="1024" />

    
    <glyph glyph-name="forward" unicode="&#58970;" d="M144.695652 61.217391c-3.33913 0-7.791304 0-11.130435 1.113044-20.034783 5.565217-33.391304 22.26087-33.391304 43.408695 0 6.678261 1.113043 176.973913 128 303.86087 81.252174 81.252174 192.556522 125.773913 332.8 133.565217V662.26087c0 17.808696 11.130435 34.504348 27.826087 41.182608 16.695652 6.678261 35.617391 3.33913 48.973913-10.017391l273.808696-278.26087c16.695652-17.808696 16.695652-45.634783 0-62.330434l-273.808696-278.26087c-12.243478-13.356522-32.278261-16.695652-48.973913-10.017391-16.695652 6.678261-27.826087 23.373913-27.826087 41.182608V225.947826c-89.043478 2.226087-300.521739-6.678261-377.321739-142.469565-7.791304-13.356522-23.373913-22.26087-38.956522-22.26087z m391.791305 254.886957c41.182609 0 70.121739-3.33913 73.460869-3.339131 22.26087-2.226087 40.069565-21.147826 40.069565-44.521739v-53.426087l166.956522 169.182609-166.956522 169.182609v-53.426087c0-24.486957-20.034783-44.521739-44.521739-44.521739-136.904348 0-242.643478-36.730435-313.878261-109.078261-32.278261-32.278261-54.53913-69.008696-70.121739-103.513044 103.513043 62.330435 234.852174 73.46087 314.991305 73.46087z"  horiz-adv-x="1024" />

    
    </font>
</defs>
</svg>
